<svg id="level_1" data-name="level_1" xmlns="http://www.w3.org/2000/svg" xmlns:xlink="http://www.w3.org/1999/xlink"
     viewBox="0 0 1245.76 1059.39">
    <defs>
        <style>
            .cls-1,.cls-14,.cls-16,.cls-19,.cls-22,.cls-24,.cls-29,.cls-30,.cls-36,.cls-38,.cls-42,.cls-5,.cls-54,.cls-59,.cls-8,.cls-9{fill:none;}.cls-2{clip-path:url(#clip-path);}.cls-3{clip-path:url(#clip-path-2);}.cls-4{fill:#b8d3db;}.cls-16,.cls-22,.cls-24,.cls-29,.cls-42,.cls-5,.cls-8,.cls-9{stroke:#000;}.cls-19,.cls-24,.cls-29,.cls-5,.cls-54,.cls-8{stroke-miterlimit:10;}.cls-6{clip-path:url(#clip-path-3);}.cls-7{fill:#fff;}.cls-19,.cls-29,.cls-54,.cls-8{stroke-width:1.8px;}.cls-14,.cls-30,.cls-36,.cls-59,.cls-9{stroke-miterlimit:5;}.cls-14,.cls-36,.cls-9{stroke-width:3.6px;}.cls-10{clip-path:url(#clip-path-4);}.cls-11{clip-path:url(#clip-path-5);}.cls-12{clip-path:url(#clip-path-6);}.cls-13{fill:#81d8cf;}.cls-14,.cls-19,.cls-38{stroke:#333;}.cls-15{clip-path:url(#clip-path-7);}.cls-16{stroke-miterlimit:5;stroke-width:3.6px;}.cls-17{clip-path:url(#clip-path-8);}.cls-18{fill:#84ddd4;}.cls-20{clip-path:url(#clip-path-9);}.cls-21{fill:#d4ec01;}.cls-22{stroke-miterlimit:10;stroke-width:0.8px;}.cls-23{clip-path:url(#clip-path-10);}.cls-24{stroke-width:0.6px;}.cls-25{clip-path:url(#clip-path-11);}.cls-26{clip-path:url(#clip-path-12);}.cls-27{fill:#333;}.cls-28{clip-path:url(#clip-path-13);}.cls-29{stroke-linecap:round;}.cls-30{stroke:#232323;}.cls-30,.cls-59{stroke-width:4px;}.cls-31{clip-path:url(#clip-path-14);}.cls-32{clip-path:url(#clip-path-15);}.cls-33{clip-path:url(#clip-path-16);}.cls-34{clip-path:url(#clip-path-17);}.cls-35{clip-path:url(#clip-path-18);}.cls-36{stroke:#0a0a0a;}.cls-37{clip-path:url(#clip-path-19);}.cls-38{stroke-miterlimit:5;stroke-width:3.6px;}.cls-39{clip-path:url(#clip-path-20);}.cls-40{clip-path:url(#clip-path-21);}.cls-41{clip-path:url(#clip-path-22);}.cls-42{stroke-miterlimit:5;stroke-width:0.8px;}.cls-43{clip-path:url(#clip-path-23);}.cls-44{clip-path:url(#clip-path-24);}.cls-45{clip-path:url(#clip-path-25);}.cls-46{clip-path:url(#clip-path-26);}.cls-47{clip-path:url(#clip-path-27);}.cls-48{clip-path:url(#clip-path-28);}.cls-49{clip-path:url(#clip-path-29);}.cls-50{fill:#aec4cb;}.cls-51{clip-path:url(#clip-path-30);}.cls-52{clip-path:url(#clip-path-31);}.cls-53{clip-path:url(#clip-path-32);}.cls-54{stroke:#fff;stroke-linecap:square;}.cls-55{clip-path:url(#clip-path-33);}.cls-56{clip-path:url(#clip-path-34);}.cls-57{fill:#b8d3dc;}.cls-58{clip-path:url(#clip-path-35);}.cls-59{stroke:#81d8cf;}
        </style>
        <clipPath id="clip-path" transform="translate(-0.28 1.89)">
            <rect class="cls-1" x="-442" y="-23" width="2208" height="1108"/>
        </clipPath>
        <clipPath id="clip-path-2" transform="translate(-0.28 1.89)">
            <path class="cls-1"
                  d="M1129.08,683.59c-13.8-8.84-2.52-8.6,0-6.59s70.51,39.7,85.27,50,4.44,30.21-.12,33.78c-4.38,3.26-126.66,75.27-146.49,87.82s-36.92,3.53-39.88,1.55S956.94,809.34,947,802.79s-29.76-2.61-33-.7q-3.21,1.92-5.07-2.66,11-7.86,18.45-7.86c7.43,0,16.63,2.43,21,4.87,2.35,1.32,21.66,12.68,41.82,24.54l2.24,1.31c16.46,9.68,33.09,19.46,41.17,24.17,18.36,10.72,40.11-8.27,44.18-10.71,2.56-1.54,52.92-31.43,91.13-54.35l3.6-2.16c20.77-12.46,37.2-22.43,39-23.83q11.67-12.55-3.9-25.65Q1142.87,692.44,1129.08,683.59Z"/>
        </clipPath>
        <clipPath id="clip-path-3" transform="translate(-0.28 1.89)">
            <path class="cls-1"
                  d="M965.18,420.23q16,11.37,143.34,88Q1245,587.33,1245,590.76q0,2.67-109.27,75.55l-5.68,3.78q-28.74,19.15-64.66,42.91L920,426.37l17.54-11Q949.17,408.86,965.18,420.23Z"/>
        </clipPath>
        <clipPath id="clip-path-4" transform="translate(-0.28 1.89)">
            <polygon class="cls-1" points="826.2 369 1044.32 504 1026 513.41 826 383.58 826.2 369"/>
        </clipPath>
        <clipPath id="clip-path-5" transform="translate(-0.28 1.89)">
            <path class="cls-1"
                  d="M1044.32,504l-20.76,9.41,28.17,214.15a4,4,0,0,0,6.21,2.79L1244,603.8l1-13L1064.61,713.2Z"/>
        </clipPath>
        <clipPath id="clip-path-6" transform="translate(-0.28 1.89)">
            <path class="cls-1"
                  d="M732.79,326.17l299.47,184L1055,734,746.44,551.08,726.71,329.93a4,4,0,0,1,3.63-4.34A4.08,4.08,0,0,1,732.79,326.17Z"/>
        </clipPath>
        <clipPath id="clip-path-7" transform="translate(-0.28 1.89)">
            <ellipse class="cls-1" cx="875.7" cy="533.35" rx="18.35" ry="33.81"
                     transform="translate(-148.63 488) rotate(-28.81)"/>
        </clipPath>
        <clipPath id="clip-path-8" transform="translate(-0.28 1.89)">
            <path class="cls-1"
                  d="M827,333V693.81h-.2C826.8,763.5,712.15,820,605.93,820S382,763.5,382,693.81c0-1.24,0-2.47.11-3.71V333Z"/>
        </clipPath>
        <clipPath id="clip-path-9" transform="translate(-0.28 1.89)">
            <ellipse class="cls-1" cx="754.54" cy="756.29" rx="8.72" ry="5.81"
                     transform="translate(-180.43 1273.14) rotate(-74)"/>
        </clipPath>
        <clipPath id="clip-path-10" transform="translate(-0.28 1.89)">
            <path class="cls-1"
                  d="M1104.77,697.25c2.74,1,18.06,10,33.3,19.15l1.86,1.12c15.21,9.15,29.81,18.09,31.14,18.85,4,2.8,15.15,12.06.92,22.64-17,10-95.31,56.57-100.44,59.18s-21.84,7.07-34,0-124.86-75.27-130.45-78.54S885.29,733,871.93,741s-67.56,43.74-72.39,45.15-17.49,6.58-24.16-7.13-14.51-16.58-17.57-16.58c-5.94-1.31-5.64-6.6-3.06-6.6S775.37,764.89,778,769s5.41,19.35,16.74,12.95,76.55-46.4,79.29-48.32,22-6.74,30.89-2,127.27,76,132.61,79.51,19.52,11.42,40.42-3.24c8.15-5.71,22.3-14.31,36.91-22.89l2.25-1.32c20.64-12.09,41.61-23.87,47.31-27.26l.56-.34.43-.27.94-.58.56-.35.38-.24c5.62-3.58,10.67-7.77-.63-15q-12.56-8-67.29-39.42Q1099.37,693.71,1104.77,697.25Z"/>
        </clipPath>
        <clipPath id="clip-path-11" transform="translate(-0.28 1.89)">
            <path class="cls-1"
                  d="M606,196c106.26,0,221,56.64,221,126.5S712.29,449,606,449,382,392.36,382,322.5,499.76,196,606,196Z"/>
        </clipPath>
        <clipPath id="clip-path-12" transform="translate(-0.28 1.89)">
            <path class="cls-1"
                  d="M382,568q17.36,43.44,37,59c39.52,31.25,101.72,54.2,174.73,54.2,62.92,0,114.77-9,163.82-31.64Q810.87,625,827,572.89v38.84c0,2.77-11.29,37.56-76.73,69.48C707.64,702,643.94,710,593.77,710c-54.68,0-115.26-15.59-156.2-40.3Q414.29,655.65,382,616.81Zm0-138q17.36,43.44,37,59c39.52,31.25,101.72,54.2,174.73,54.2,62.92,0,114.77-9,163.82-31.64Q810.87,487,827,435.92v35.5c0,2.76-11.29,39.87-76.73,71.79C707.64,564,643.94,572,593.77,572c-54.68,0-115.26-15.59-156.2-40.3Q414.29,517.65,382,478.81Z"/>
        </clipPath>
        <clipPath id="clip-path-13" transform="translate(-0.28 1.89)">
            <path class="cls-1"
                  d="M582.5,728A24.5,24.5,0,1,1,558,752.5,24.5,24.5,0,0,1,582.5,728Zm0-132A24.5,24.5,0,1,1,558,620.5,24.5,24.5,0,0,1,582.5,596Zm0-120A24.5,24.5,0,1,1,558,500.5,24.5,24.5,0,0,1,582.5,476Z"/>
        </clipPath>
        <clipPath id="clip-path-14" transform="translate(-0.28 1.89)">
            <circle class="cls-1" cx="591" cy="171" r="40"/>
        </clipPath>
        <clipPath id="clip-path-15" transform="translate(-0.28 1.89)">
            <path class="cls-1"
                  d="M744.52,878l54,30,6.75,3.75q84,46.65,91,50.65,9.18,5.26,21.81,2.62v30.84q-13.61,9.76-21.81,5.55T744.55,912.27a3,3,0,0,1-1.47-2.71Z"/>
        </clipPath>
        <clipPath id="clip-path-16" transform="translate(-0.28 1.89)">
            <path class="cls-1"
                  d="M1066,883v30a2,2,0,0,1-1,1.75L906.07,1003V970.33Q1057,887.58,1060,885A7.46,7.46,0,0,1,1066,883Z"/>
        </clipPath>
        <clipPath id="clip-path-17" transform="translate(-0.28 1.89)">
            <path class="cls-1"
                  d="M906.78,793.51l157.82,84.62a6,6,0,0,1,0,10.57L909,972.44a6,6,0,0,1-5.77-.05l-159.08-89a4,4,0,0,1,.09-7l156.93-82.86A6,6,0,0,1,906.78,793.51Z"/>
        </clipPath>
        <clipPath id="clip-path-18" transform="translate(-0.28 1.89)">
            <path class="cls-1"
                  d="M906.08,817.1l113.79,63.77a4,4,0,0,1,0,7l-112.65,65a4,4,0,0,1-4,0L789.13,887.81a4,4,0,0,1-1.5-5.46,4,4,0,0,1,1.51-1.5l113-63.75A4,4,0,0,1,906.08,817.1Z"/>
        </clipPath>
        <clipPath id="clip-path-19" transform="translate(-0.28 1.89)">
            <ellipse class="cls-1" cx="836.51" cy="952.55" rx="6.09" ry="9.26"
                     transform="translate(-266.26 327.25) rotate(-19.16)"/>
        </clipPath>
        <clipPath id="clip-path-20" transform="translate(-0.28 1.89)">
            <ellipse class="cls-1" cx="816.76" cy="941.71" rx="6.09" ry="9.26"
                     transform="translate(-263.8 320.17) rotate(-19.16)"/>
        </clipPath>
        <clipPath id="clip-path-21" transform="translate(-0.28 1.89)">
            <ellipse class="cls-1" cx="795.48" cy="929.34" rx="6.09" ry="9.26"
                     transform="translate(-260.92 312.51) rotate(-19.16)"/>
        </clipPath>
        <clipPath id="clip-path-22" transform="translate(-0.28 1.89)">
            <ellipse class="cls-1" cx="816.75" cy="942.23" rx="2.28" ry="3.09"
                     transform="translate(-239.31 279.2) rotate(-16.96)"/>
        </clipPath>
        <clipPath id="clip-path-23" transform="translate(-0.28 1.89)">
            <ellipse class="cls-1" cx="795.48" cy="929.86" rx="2.28" ry="3.09"
                     transform="translate(-236.63 272.45) rotate(-16.96)"/>
        </clipPath>
        <clipPath id="clip-path-24" transform="translate(-0.28 1.89)">
            <path class="cls-1"
                  d="M792.18,929.34c6.55-1.9,8.71,4.66,5,7.22s-8.31,5.41-11.11,7.49-4.42,5.41-12.81,11.13c-1.08.74-39.22,23.22-77.71,46.13l-4.27,2.55c-31.34,18.67-62,37.11-72.13,43.77-23,15.15-45.73,8.26-55.24,4.51q-9.51-3.75-136-81.51l4.56-4.53Q542.38,1031.21,564,1044c21.56,12.77,39.61,3.72,46.86,0s157.93-94.51,164.72-98.79S785.64,931.25,792.18,929.34Z"/>
        </clipPath>
        <clipPath id="clip-path-25" transform="translate(-0.28 1.89)">
            <polygon class="cls-1" points="2 829.03 319 1025.37 316 1043 2 846.36 2 829.03"/>
        </clipPath>
        <clipPath id="clip-path-26" transform="translate(-0.28 1.89)">
            <path class="cls-1" d="M546,653V910.27a4,4,0,0,1-2,3.48L316,1043v-18.38L528.79,903.26V663.45Z"/>
        </clipPath>
        <clipPath id="clip-path-27" transform="translate(-0.28 1.89)">
            <polygon class="cls-1" points="198.76 710 534 905.2 317.69 1027 2 829.03 198.76 710"/>
        </clipPath>
        <clipPath id="clip-path-28" transform="translate(-0.28 1.89)">
            <ellipse class="cls-1" cx="702.24" cy="779.53" rx="8.72" ry="5.81"
                     transform="translate(-240.65 1239.7) rotate(-74)"/>
        </clipPath>
        <clipPath id="clip-path-29" transform="translate(-0.28 1.89)">
            <polygon class="cls-1" points="200.04 476 534 663 534 905.2 197 712.33 200.04 476"/>
        </clipPath>
        <clipPath id="clip-path-30" transform="translate(-0.28 1.89)">
            <path class="cls-1" d="M216.24,473.14,548,652.43l-16.62,11L200,478.79l15.4-5.71A1,1,0,0,1,216.24,473.14Z"/>
        </clipPath>
        <clipPath id="clip-path-31" transform="translate(-0.28 1.89)">
            <path class="cls-1"
                  d="M210.47,741.71,474.21,895.15a6,6,0,0,1,.06,10.33l-73.1,43.7a6,6,0,0,1-6.1,0l-266-155.46a6,6,0,0,1,.12-10.43l75.32-41.67A6,6,0,0,1,210.47,741.71Z"/>
        </clipPath>
        <clipPath id="clip-path-32" transform="translate(-0.28 1.89)">
            <path class="cls-1"
                  d="M190.79,849.84l99.45,57.73a6,6,0,0,1,2.18,8.2,5.93,5.93,0,0,1-2.09,2.13l-56.59,34.21a6,6,0,0,1-6.23,0l-95.34-58.37a6,6,0,0,1-.1-10.18L184.54,850A6,6,0,0,1,190.79,849.84Z"/>
        </clipPath>
        <clipPath id="clip-path-33" transform="translate(-0.28 1.89)">
            <path class="cls-1"
                  d="M702.9,779c2.64,0,11,3.46,13.25,6s.34,7.45,4.74,12.69,17.09,10.19,19.85,13.49S744.88,824,738,827.86c-5.72,3.25-57.69,33.65-76.62,45l-1.31.79c-3.13,1.88-5.11,3.1-5.49,3.39-2.49,1.92-4.83,8.24,5.46,13.57,4.53,2.35,14.65,8.93,24.93,15.83l1.4.94c12.62,8.49,25.1,17.18,27.41,18.82,6.62,4.68,8.68,12.26-2.44,19.58Q706.1,949,691.66,958l-1.68,1q-26.94,16.83-83.75,52.46-57.54,34.71-63.66,38.15c-6.13,3.45-28.37,12.82-46.33,2.94q-18-9.87-94.24-56l7.37-4.72q68.14,41.42,69.72,42.83c1.56,1.42,29.45,20.66,48,15,8.71-2.66,46.24-25.11,84.08-48.47l4.83-3c41-25.39,81-50.92,83.48-52.44,4.85-3,23.75-8.85,2.32-20.57-4.41-2.75-9.25-5.86-14.13-9l-1.28-.83c-15.92-10.41-31.89-21.34-34.46-22.79-3.43-1.94-12.79-15.51,5.66-25.16,26.48-14.53,71.58-39.51,75.6-42.68s4.39-11.54-6.32-15.11-13.09-10.86-13.09-15-3.51-9.58-7.19-9.58C700.11,783,700.25,779,702.9,779Z"/>
        </clipPath>
        <clipPath id="clip-path-34" transform="translate(-0.28 1.89)">
            <path class="cls-1"
                  d="M1054,591.74q40,25.37,51.71,32.71c11.71,7.34,19.42,15.41,3.07,24.37q-16.35,9-47.08,26.28Z"/>
        </clipPath>
        <clipPath id="clip-path-35" transform="translate(-0.28 1.89)">
            <path class="cls-1"
                  d="M725.61,221.47c9.34,51.94-2.89,93.74-32.79,107.14-28.6,12.82-69.83,7.73-111-15.39a247.32,247.32,0,0,0,76.6-61.07C686.2,245.61,708.85,235,725,222Zm-279.77-7.28c14.75,12.64,34.9,23.79,59.15,31.86l1.12.37c22.7,29.37,48.72,51.45,74.82,66.28l.92.52c-40.81,20.6-81.31,25-105.28,9.57-27.58-17.71-40.26-57.47-31-107.09ZM590.39,69.63h1.43a288,288,0,0,1,58.32,6.28l1.14.26a395.75,395.75,0,0,1,25,32.26A323.18,323.18,0,0,1,708.14,165l.58,1.33a477.08,477.08,0,0,1-25.67,50.86A243.37,243.37,0,0,1,659.45,251l-1,1.19a291.06,291.06,0,0,1-66.63,7.29c-31.88,0-60.91-4.9-85.71-13q-5.78-7.47-11.26-15.59A327,327,0,0,1,461,166.34a317.11,317.11,0,0,1,35.21-60.57q10.69-14.62,21.58-27.09A268.73,268.73,0,0,1,590.39,69.63Zm118.33,96.66a293.47,293.47,0,0,0,17-51.64l.27-1.24c16.24,15.83,25,34.49,26.67,53.42,1.75,19.94-8.06,39-27.08,54.64A256.11,256.11,0,0,0,708.72,166.29Zm-290.43.44c-.61-17.07,9.36-35.52,27.8-51.71l.56-.49a258.34,258.34,0,0,0,13.78,50.33l.56,1.48a231,231,0,0,0-15.15,47.85C428.73,199.54,418.87,182.89,418.29,166.73ZM478.35,10.65C508-5.86,546-3.08,585.54,19.8l1.2.7C564.34,33,541.3,51.88,518.67,77.66l-.89,1c-29.76,8.12-54,21-71.13,35.85C439,67.07,448.78,27.11,478.35,10.65ZM651.28,76.18c-21.23-24.55-43.11-43.07-64.54-55.68l1.61-.89c40.26-21.89,78.36-23,108.19-5.75,31.12,18,39.19,54,29.48,99.55C709.22,97,684.42,83.67,651.28,76.18Z"/>
        </clipPath>
    </defs>
    <g class="cls-2">
        <g class="cls-3">
            <polygon class="cls-4" points="908.72 677.74 1221.72 677.74 1221.72 857.04 908.72 857.04 908.72 677.74"/>
        </g>
        <path class="cls-5"
              d="M914.07,802.09c3.21-1.91,23.07-5.85,33,.7s77.86,45.39,80.82,47.37,20,11,39.88-1.55,142.11-84.56,146.49-87.82c4.56-3.57,14.87-23.48.12-33.78s-82.75-48-85.27-50-13.8-2.25,0,6.59q13.79,8.85,78.62,46.17,15.57,13.1,3.9,25.65c-5.2,4-129.68,77.9-133.75,80.34s-25.82,21.43-44.18,10.71-80.88-47.57-85.23-50-13.56-4.87-21-4.87q-7.43,0-18.45,7.86Q910.86,804,914.07,802.09Z"
              transform="translate(-0.28 1.89)"/>
        <g class="cls-6">
            <polygon class="cls-7" points="826.72 414.89 1244.72 414.89 1244.72 714.89 826.72 714.89 826.72 414.89"/>
        </g>
        <path class="cls-8"
              d="M827,487l93-60.63,17.54-11q11.63-6.5,27.64,4.87t143.34,88Q1245,587.33,1245,590.76T1065.39,713"
              transform="translate(-0.28 1.89)"/>
        <polygon class="cls-9"
                 points="825.91 370.89 1044.04 505.89 1025.72 515.29 825.72 385.47 825.91 370.89 825.91 370.89"/>
        <g class="cls-10">
            <polygon class="cls-7" points="825.72 370.89 1044.04 370.89 1044.04 515.29 825.72 515.29 825.72 370.89"/>
        </g>
        <g class="cls-11">
            <polygon class="cls-7" points="1244.72 505.89 1023.28 505.89 1023.28 732.93 1244.72 732.93 1244.72 505.89"/>
        </g>
        <path class="cls-8"
              d="M1245,590.76l-1,13L1057.94,730.35a4,4,0,0,1-6.21-2.79l-28.17-214.15h0l20.76-9.41,20.29,209.2Z"
              transform="translate(-0.28 1.89)"/>
        <g class="cls-12">
            <polygon class="cls-13" points="726.41 327.46 1054.72 327.46 1054.72 735.89 726.41 735.89 726.41 327.46"/>
            <path class="cls-14"
                  d="M732.79,326.17l299.47,184h0L1055,734,746.44,551.08,726.71,329.93a4,4,0,0,1,3.63-4.34A4.08,4.08,0,0,1,732.79,326.17Z"
                  transform="translate(-0.28 1.89)"/>
        </g>
        <g class="cls-15">
            <polygon class="cls-7" points="842.62 515.13 874.41 496.78 908.22 555.34 876.43 573.69 842.62 515.13"/>
            <path class="cls-16"
                  d="M892.28,562.82c8.72-5.17,8.36-22.56-.79-38.83s-23.64-25.28-32.36-20.11-8.37,22.55.78,38.83S883.56,568,892.28,562.82Z"
                  transform="translate(-0.28 1.89)"/>
        </g>
        <g class="cls-17">
            <polygon class="cls-18" points="381.72 334.89 826.72 334.89 826.72 821.89 381.72 821.89 381.72 334.89"/>
        </g>
        <path class="cls-19"
              d="M827,333V693.81h-.2C826.8,763.5,712.15,820,605.93,820S382,763.5,382,693.81c0-1.24,0-2.47.11-3.71V333Z"
              transform="translate(-0.28 1.89)"/>
        <g class="cls-20">
            <polygon class="cls-21" points="751.08 748.19 762.25 751.4 757.44 768.15 746.27 764.95 751.08 748.19"/>
        </g>
        <path class="cls-22"
              d="M752.14,764.67c3.09.88,6.66-2.15,8-6.78s-.1-9.1-3.18-10-6.66,2.15-8,6.77S749.06,763.78,752.14,764.67Z"
              transform="translate(-0.28 1.89)"/>
        <g class="cls-23">
            <polygon class="cls-7" points="752.72 697.89 1178.72 697.89 1178.72 823.89 752.72 823.89 752.72 697.89"/>
        </g>
        <path class="cls-24"
              d="M754.75,755.81c2.58,0,20.62,9.08,23.22,13.16s5.41,19.35,16.74,12.95,76.55-46.4,79.29-48.32,22-6.74,30.89-2,127.27,76,132.61,79.51,19.52,11.42,40.42-3.24,81.29-48.21,87.46-52.08,13.8-8.13,1.25-16.16q-12.56-8-67.29-39.42,0-6.53,5.43-3c5.59,2,63.59,37.56,66.3,39.12,4,2.8,15.15,12.06.92,22.64-17,10-95.31,56.57-100.44,59.18s-21.84,7.07-34,0-124.86-75.27-130.45-78.54S885.29,733,871.93,741s-67.56,43.74-72.39,45.15-17.49,6.58-24.16-7.13-14.51-16.58-17.57-16.58C751.87,761.1,752.17,755.81,754.75,755.81Z"
              transform="translate(-0.28 1.89)"/>
        <g class="cls-25">
            <polygon class="cls-7" points="381.72 197.89 826.72 197.89 826.72 450.89 381.72 450.89 381.72 197.89"/>
        </g>
        <path class="cls-19"
              d="M606,449c106.26,0,221-56.64,221-126.5S712.29,196,606,196,382,252.64,382,322.5,499.76,449,606,449Z"
              transform="translate(-0.28 1.89)"/>
        <g class="cls-26">
            <polygon class="cls-27" points="381.72 431.89 826.72 431.89 826.72 711.89 381.72 711.89 381.72 431.89"/>
        </g>
        <g class="cls-28">
            <polygon class="cls-7" points="557.72 477.89 606.72 477.89 606.72 778.89 557.72 778.89 557.72 477.89"/>
            <path class="cls-9"
                  d="M582.5,525A24.5,24.5,0,1,0,558,500.5,24.5,24.5,0,0,0,582.5,525Zm0,120A24.5,24.5,0,1,0,558,620.5,24.5,24.5,0,0,0,582.5,645Zm0,132A24.5,24.5,0,1,0,558,752.5,24.5,24.5,0,0,0,582.5,777Z"
                  transform="translate(-0.28 1.89)"/>
        </g>
        <path class="cls-29"
              d="M623,501q78.3-6.75,108.86-20.18T800,438M623,618q78.3-6.75,108.86-20.18T800,555M623,753q78.3-6.75,108.86-20.18T800,690"
              transform="translate(-0.28 1.89)"/>
        <path class="cls-30" d="M591,211a40,40,0,1,0-40-40A40,40,0,0,0,591,211Z" transform="translate(-0.28 1.89)"/>
        <g class="cls-31">
            <polygon class="cls-18" points="550.72 132.89 630.72 132.89 630.72 212.89 550.72 212.89 550.72 132.89"/>
        </g>
        <g class="cls-32">
            <polygon class="cls-18" points="742.79 879.89 917.72 879.89 917.72 1004.54 742.79 1004.54 742.79 879.89"/>
        </g>
        <path class="cls-19"
              d="M744.52,878l-1.44,31.56a3,3,0,0,0,1.47,2.71Q888,997.2,896.19,1001.38T918,995.83V965q-12.64,2.64-21.81-2.62T744.52,878Z"
              transform="translate(-0.28 1.89)"/>
        <g class="cls-33">
            <polygon class="cls-7" points="905.79 884.81 1065.72 884.81 1065.72 1004.89 905.79 1004.89 905.79 884.81"/>
        </g>
        <path class="cls-8"
              d="M1066,883v30a2,2,0,0,1-1,1.75L906.07,1003h0V970.33Q1057,887.58,1060,885A7.46,7.46,0,0,1,1066,883Z"
              transform="translate(-0.28 1.89)"/>
        <g class="cls-34">
            <polygon class="cls-7" points="741.79 794.68 1067.49 794.68 1067.49 975.04 741.79 975.04 741.79 794.68"/>
            <path class="cls-9"
                  d="M744.21,876.35l156.93-82.86a6,6,0,0,1,5.64,0l157.82,84.62a6,6,0,0,1,0,10.57L909,972.44a6,6,0,0,1-5.77-.05l-159.08-89a4,4,0,0,1,.09-7Z"
                  transform="translate(-0.28 1.89)"/>
        </g>
        <g class="cls-35">
            <path class="cls-36"
                  d="M789.14,880.85l113-63.75a4,4,0,0,1,3.93,0l113.79,63.77a4,4,0,0,1,0,7l-112.65,65a4,4,0,0,1-4,0L789.13,887.81a4,4,0,0,1-1.5-5.46A4,4,0,0,1,789.14,880.85Z"
                  transform="translate(-0.28 1.89)"/>
        </g>
        <g class="cls-37">
            <polygon class="cls-7" points="827.33 947.81 838.78 943.64 845.12 961.05 833.67 965.22 827.33 947.81"/>
            <path class="cls-38"
                  d="M839.63,961.27c3.15-1.17,4.31-6,2.59-10.84s-5.68-7.78-8.83-6.61-4.31,6-2.59,10.84S836.47,962.44,839.63,961.27Z"
                  transform="translate(-0.28 1.89)"/>
        </g>
        <g class="cls-39">
            <polygon class="cls-7" points="807.58 936.98 819.03 932.81 825.37 950.22 813.92 954.39 807.58 936.98"/>
            <path class="cls-38"
                  d="M819.87,950.44c3.16-1.17,4.32-6,2.6-10.84s-5.68-7.78-8.83-6.61-4.32,6-2.59,10.84S816.72,951.61,819.87,950.44Z"
                  transform="translate(-0.28 1.89)"/>
        </g>
        <g class="cls-40">
            <polygon class="cls-7" points="786.31 924.6 797.76 920.43 804.09 937.85 792.65 942.01 786.31 924.6"/>
            <path class="cls-38"
                  d="M798.6,938.06c3.16-1.17,4.32-6,2.6-10.84s-5.68-7.78-8.83-6.61-4.32,6-2.6,10.84S795.45,939.23,798.6,938.06Z"
                  transform="translate(-0.28 1.89)"/>
        </g>
        <g class="cls-41">
            <polygon points="813.34 941.89 817.68 940.48 819.6 946.35 815.25 947.76 813.34 941.89"/>
            <path class="cls-42"
                  d="M817.69,945.18c1.2-.4,1.75-2,1.23-3.66s-1.91-2.62-3.11-2.23-1.74,2-1.22,3.66S816.49,945.57,817.69,945.18Z"
                  transform="translate(-0.28 1.89)"/>
        </g>
        <g class="cls-43">
            <polygon points="792.07 929.51 796.41 928.1 798.32 933.98 793.98 935.39 792.07 929.51"/>
            <path class="cls-42"
                  d="M796.42,932.8c1.2-.4,1.75-2,1.23-3.66s-1.91-2.62-3.11-2.23-1.75,2-1.23,3.66S795.22,933.2,796.42,932.8Z"
                  transform="translate(-0.28 1.89)"/>
        </g>
        <g class="cls-44">
            <polygon class="cls-7" points="427.72 930.89 798.72 930.89 798.72 1058.89 427.72 1058.89 427.72 930.89"/>
        </g>
        <path class="cls-5"
              d="M792.18,929.34c-6.54,1.91-9.86,11.59-16.65,15.86S618.06,1040.28,610.81,1044s-25.3,12.77-46.86,0q-21.57-12.77-131.39-77.89L428,970.63q126.43,77.76,136,81.51c9.51,3.75,32.24,10.64,55.24-4.51S771.3,956.54,773.3,955.18c8.39-5.72,10-9,12.81-11.13s7.45-4.94,11.11-7.49S798.73,927.44,792.18,929.34Z"
              transform="translate(-0.28 1.89)"/>
        <g class="cls-45">
            <polygon class="cls-7" points="1.72 830.92 318.72 830.92 318.72 1044.89 1.72 1044.89 1.72 830.92"/>
        </g>
        <polygon class="cls-19" points="1.72 830.92 1.72 848.25 315.72 1044.89 318.72 1027.26 1.72 830.92 1.72 830.92"/>
        <g class="cls-46">
            <polygon class="cls-7" points="315.72 654.89 545.72 654.89 545.72 1044.89 315.72 1044.89 315.72 654.89"/>
        </g>
        <path class="cls-19" d="M316,1024.62V1043L544,913.75a4,4,0,0,0,2-3.48V653h0l-17.21,10.45V903.26Z"
              transform="translate(-0.28 1.89)"/>
        <g class="cls-47">
            <polygon class="cls-7" points="1.72 711.89 533.72 711.89 533.72 1028.89 1.72 1028.89 1.72 711.89"/>
        </g>
        <polygon class="cls-19"
                 points="198.48 711.89 1.72 830.92 317.41 1028.89 533.72 907.09 198.48 711.89 198.48 711.89"/>
        <g class="cls-48">
            <polygon class="cls-21" points="698.78 771.44 709.95 774.64 705.14 791.4 693.97 788.2 698.78 771.44"/>
        </g>
        <path class="cls-22"
              d="M699.84,787.91c3.09.88,6.66-2.15,8-6.78s-.1-9.09-3.18-10-6.66,2.15-8,6.78S696.76,787,699.84,787.91Z"
              transform="translate(-0.28 1.89)"/>
        <g class="cls-49">
            <polygon class="cls-50" points="196.72 477.89 533.72 477.89 533.72 907.09 196.72 907.09 196.72 477.89"/>
            <polygon class="cls-14"
                     points="199.76 477.89 533.72 664.89 533.72 907.09 196.72 714.21 199.76 477.89 199.76 477.89"/>
        </g>
        <g class="cls-51">
            <polygon class="cls-7" points="199.73 474.91 547.72 474.91 547.72 665.29 199.73 665.29 199.73 474.91"/>
            <path class="cls-14" d="M216.24,473.14,548,652.43h0l-16.62,11L200,478.79l15.4-5.71A1,1,0,0,1,216.24,473.14Z"
                  transform="translate(-0.28 1.89)"/>
        </g>
        <g class="cls-52">
            <path class="cls-14"
                  d="M210.47,741.71,474.21,895.15a6,6,0,0,1,.06,10.33l-73.1,43.7a6,6,0,0,1-6.1,0l-266-155.46a6,6,0,0,1,.12-10.43l75.32-41.67A6,6,0,0,1,210.47,741.71Z"
                  transform="translate(-0.28 1.89)"/>
        </g>
        <g class="cls-53">
            <path class="cls-1"
                  d="M190.79,849.84l99.45,57.73a6,6,0,0,1,2.18,8.2,5.93,5.93,0,0,1-2.09,2.13l-56.59,34.21a6,6,0,0,1-6.23,0l-95.34-58.37a6,6,0,0,1-.1-10.18L184.54,850A6,6,0,0,1,190.79,849.84Z"
                  transform="translate(-0.28 1.89)"/>
        </g>
        <path class="cls-54"
              d="M240.61,531.82v29.35m137,48.11v29.36M476,667.39v29.35M329.38,651.89v29.36m-50.17-54.54v29.36M231,679v29.35M368,752.6V782M327.38,572.9l.22,0a11.62,11.62,0,0,1,12.59,10.56c0,.1,0,.2,0,.3l.62,9.83a12,12,0,0,1-10.93,12.7l-.22,0a11.62,11.62,0,0,1-12.59-10.56c0-.1,0-.2,0-.3l-.62-9.83A12,12,0,0,1,327.38,572.9Zm-48.7-23.83a10.51,10.51,0,0,1,11.39,9.55c0,.08,0,.16,0,.24l.78,11.94a11,11,0,0,1-10,11.66,10.49,10.49,0,0,1-11.38-9.54,1.94,1.94,0,0,1,0-.24l-.77-11.94A11,11,0,0,1,278.68,549.07ZM423.29,640a10.51,10.51,0,0,1,11.39,9.54c0,.08,0,.17,0,.25l.78,11.94a11,11,0,0,1-10,11.66,10.49,10.49,0,0,1-11.38-9.54,1.94,1.94,0,0,1,0-.24l-.77-11.94A11,11,0,0,1,423.29,640Zm-47.67,35.09a10.55,10.55,0,0,1,11.43,9.58c0,.07,0,.13,0,.2l1.37,19.93a11,11,0,0,1-10,11.66A10.55,10.55,0,0,1,367,706.86c0-.07,0-.14,0-.2l-1.37-19.93A11,11,0,0,1,375.62,675.07Zm-49.26,43.06a10.55,10.55,0,0,1,11.43,9.59c0,.06,0,.13,0,.19l1.38,19.93a10.94,10.94,0,0,1-10,11.66,10.55,10.55,0,0,1-11.43-9.58c0-.07,0-.13,0-.2l-1.37-19.93A11,11,0,0,1,326.36,718.13Zm-49.27-23.92a10.55,10.55,0,0,1,11.44,9.58c0,.07,0,.13,0,.2l1.38,19.93a11,11,0,0,1-10,11.66A10.55,10.55,0,0,1,268.51,726c0-.06,0-.13,0-.19l-1.38-19.93A11,11,0,0,1,277.09,694.21Zm136.67,78.15a10.55,10.55,0,0,1,11.43,9.58c0,.07,0,.13,0,.2l1.37,19.93a11,11,0,0,1-10,11.66,10.55,10.55,0,0,1-11.43-9.59c0-.06,0-.13,0-.19L403.79,784A11,11,0,0,1,413.76,772.36Zm47.67,22.32a10.55,10.55,0,0,1,11.43,9.59c0,.07,0,.13,0,.2l1.37,19.93a11,11,0,0,1-10,11.66,10.55,10.55,0,0,1-11.44-9.59c0-.06,0-.13,0-.19l-1.38-19.93A11,11,0,0,1,461.43,794.68Z"
              transform="translate(-0.28 1.89)"/>
        <g class="cls-55">
            <polygon class="cls-21" points="401.72 780.89 742.72 780.89 742.72 1058.89 401.72 1058.89 401.72 780.89"/>
        </g>
        <path class="cls-5"
              d="M702.9,779c2.64,0,11,3.46,13.25,6s.34,7.45,4.74,12.69,17.09,10.19,19.85,13.49S744.88,824,738,827.86,657.06,875.1,654.56,877s-4.83,8.24,5.46,13.57,49.46,32.55,53.74,35.59c6.62,4.68,8.68,12.26-2.44,19.58q-14.91,9.19-105.09,65.75-57.54,34.71-63.66,38.15c-6.13,3.45-28.37,12.82-46.33,2.94q-18-9.87-94.24-56l7.37-4.72q68.14,41.42,69.72,42.83c1.56,1.42,29.45,20.66,48,15s167.54-100.91,172.39-103.9,23.75-8.85,2.32-20.57c-19.2-12-46.45-30.72-49.87-32.66s-12.79-15.51,5.66-25.16c26.48-14.53,71.58-39.51,75.6-42.68s4.39-11.54-6.32-15.11-13.09-10.86-13.09-15-3.51-9.58-7.19-9.58C700.11,783,700.25,779,702.9,779Z"
              transform="translate(-0.28 1.89)"/>
        <g class="cls-56">
            <polygon class="cls-57"
                     points="1053.74 593.63 1118.68 594.76 1117.23 677.96 1052.29 676.82 1053.74 593.63"/>
        </g>
        <g class="cls-58">
            <path class="cls-59"
                  d="M588.35,19.61c40.26-21.89,78.36-23,108.19-5.75,31.12,18,39.19,54,29.48,99.55,16.24,15.83,25,34.49,26.67,53.42,1.75,19.94-8.06,39-27.08,54.64,9.34,51.94-2.89,93.74-32.79,107.14-28.6,12.82-69.83,7.73-111-15.39a247.32,247.32,0,0,0,76.6-61.07c28.1-6.63,51-17.39,67.16-30.68a256.11,256.11,0,0,0-16.89-55.18c7.93-18.61,13.78-36.37,17.3-52.88-16.8-16.39-41.6-29.74-74.74-37.23-21.23-24.55-43.11-43.07-64.54-55.68Zm-110-9C508.32-6,546.77-3,586.74,20.5c-22.69,12.64-46,31.88-69,58.18-29.76,8.12-54,21-71.13,35.85A260,260,0,0,0,461,166.34a231,231,0,0,0-15.15,47.85c15,12.83,35.52,24.14,60.27,32.23,23,29.71,49.34,52,75.74,66.8-40.81,20.6-81.31,25-105.28,9.57-27.85-17.89-40.52-58.28-30.73-108.6-17.11-14.65-27-31.3-27.55-47.46-.62-17.25,9.56-35.89,28.36-52.2C439,67.07,448.78,27.11,478.35,10.65Zm110.34,59,3.13,0a285.88,285.88,0,0,1,59.46,6.54,395.75,395.75,0,0,1,25,32.26,323.12,323.12,0,0,1,32.41,57.85,477.08,477.08,0,0,1-25.67,50.86,243.46,243.46,0,0,1-24.6,35,291.06,291.06,0,0,1-66.63,7.29c-31.88,0-60.91-4.9-85.71-13q-5.78-7.47-11.26-15.59A327,327,0,0,1,461,166.34a317.11,317.11,0,0,1,35.21-60.57q10.69-14.62,21.58-27.09a269.25,269.25,0,0,1,74-9Z"
                  transform="translate(-0.28 1.89)"/>
        </g>
        <path class="cls-1"
              d="M1026,490.62h0l2.84-1.81a11.5,11.5,0,0,1,12-.26l87.38,50.58a11.69,11.69,0,0,1,.18,20.11l-45,27.1a11.51,11.51,0,0,1-12,0l-19.89-12.15h0"
              transform="translate(-0.28 1.89)"/>
    </g>
</svg>