<?xml version="1.0" encoding="utf-8"?>
<!-- Generator: Adobe Illustrator 24.1.0, SVG Export Plug-In . SVG Version: 6.00 Build 0)  -->
<svg version="1.1" id="level_3" xmlns="http://www.w3.org/2000/svg" xmlns:xlink="http://www.w3.org/1999/xlink" x="0px" y="0px"
	 viewBox="0 0 704 1109" style="enable-background:new 0 0 704 1109;" xml:space="preserve">
<style type="text/css">
	.st0{clip-path:url(#SVGID_2_);}
	.st1{clip-path:url(#SVGID_4_);}
	.st2{fill:#84DDD4;}
	.st3{fill:none;stroke:#969696;stroke-width:2;stroke-miterlimit:5;}
	.st4{clip-path:url(#SVGID_6_);}
	.st5{fill:none;stroke:#000000;stroke-width:2;stroke-miterlimit:5;}
	.st6{clip-path:url(#SVGID_8_);}
	.st7{clip-path:url(#SVGID_10_);}
	.st8{fill:#FFFFFF;}
	.st9{fill:none;stroke:#000000;stroke-width:3.6;stroke-miterlimit:5;}
	.st10{clip-path:url(#SVGID_12_);}
	.st11{clip-path:url(#SVGID_14_);}
	.st12{fill:#AEC4CB;}
	.st13{clip-path:url(#SVGID_16_);}
	.st14{clip-path:url(#SVGID_18_);}
	.st15{fill:none;stroke:#000000;stroke-width:1.8;stroke-miterlimit:10;}
	.st16{clip-path:url(#SVGID_20_);}
	.st17{clip-path:url(#SVGID_22_);}
	.st18{clip-path:url(#SVGID_24_);}
	.st19{clip-path:url(#SVGID_26_);}
	.st20{clip-path:url(#SVGID_28_);}
	.st21{clip-path:url(#SVGID_30_);}
	.st22{clip-path:url(#SVGID_32_);}
	.st23{clip-path:url(#SVGID_34_);}
	.st24{clip-path:url(#SVGID_36_);}
	.st25{clip-path:url(#SVGID_38_);}
	.st26{clip-path:url(#SVGID_40_);}
	.st27{fill:none;stroke:#111111;stroke-width:1.8;stroke-miterlimit:10;}
</style>
<g transform="translate(-655.0 1.0)">
	<g>
		<defs>
			<rect id="SVGID_1_" width="2082" height="1108"/>
		</defs>
		<clipPath id="SVGID_2_">
			<use xlink:href="#SVGID_1_"  style="overflow:visible;"/>
		</clipPath>
		<g class="st0">
			<g transform="translate(654.9999999999983 -1.0)">
				<g transform="translate(152.0 388.0)">
					<g>
						<defs>
							<rect id="SVGID_3_" width="217" height="202"/>
						</defs>
						<clipPath id="SVGID_4_">
							<use xlink:href="#SVGID_3_"  style="overflow:visible;"/>
						</clipPath>
						<g class="st1">
							<polygon class="st2" points="0,0 217,0 217,202 0,202 							"/>
							<polygon class="st3" points="0,0 217,0 217,202 0,202 0,0 							"/>
						</g>
					</g>
				</g>
				<g transform="translate(26.0 0.0)">
					<g>
						<defs>
							<path id="SVGID_5_" d="M12.1,9c2.2,0,4.3,0.6,6.1,1.6c308,180.5,468.5,276,481.7,286.5c13.4,10.7,20.1,41.9,20.1,93.7V1088
								c0,6.6-5.4,12-12,12c-2.1,0-4.2-0.6-6.1-1.7L57.2,836.6c-19.2-10.5-33.7-24.3-43.4-41.5c-2.8-4.9-10.4-21.4-10.4-69.3
								C3.4,655,2.3,424.1,0.2,33L0.1,21.1C0.1,14.4,5.4,9,12.1,9z"/>
						</defs>
						<clipPath id="SVGID_6_">
							<use xlink:href="#SVGID_5_"  style="overflow:visible;"/>
						</clipPath>
						<g class="st4">
							<polygon class="st2" points="0.1,9 520,9 520,1100 0.1,1100 							"/>
							<path class="st5" d="M18.2,10.7c308,180.5,468.5,276,481.7,286.5c13.4,10.7,20.1,41.9,20.1,93.7V1088c0,6.6-5.4,12-12,12
								c-2.1,0-4.2-0.6-6.1-1.7L57.2,836.6l0,0c-19.2-10.5-33.7-24.3-43.4-41.5c-2.8-4.9-10.4-21.4-10.4-69.3
								c0-71.5-1.1-306.5-3.3-704.8h0C0.1,14.4,5.4,9,12.1,9C14.2,9,16.3,9.6,18.2,10.7L18.2,10.7z"/>
						</g>
					</g>
				</g>
				<g transform="translate(0.0 16.0)">
					<g>
						<defs>
							<path id="SVGID_7_" d="M50.9,0c6.3,0.3,87.3,46.2,217,122.3l19.5,11.4C384.9,191,504.5,262.2,520.1,272l0.8,0.5
								c11.7,10.2,17.6,19.2,17.6,27v0.7l-27,8.3c5.1,14.3,7.1,39.5,6,75.7v666.8c0,13.1-10.7,23.8-23.8,23.8
								c-4.2,0-8.3-1.1-11.9-3.2L53.9,823.9c-18.8-10.1-33.1-23.4-42.8-39.8l-0.8-1.4C7.4,777.6,0.1,761.3,0,716.1l0.1-93.5l0.7-583
								c0-9.8,5.9-18.2,14.4-21.8l-1.4,0l3.7-2.4C33.3,5.1,44.4,0,50.9,0L50.9,0z M24.6,17.8c-12.1,0-21.8,9.7-21.8,21.8L2.1,564.9
								C2,624.1,2,668.1,2,697l0,1.8l0,0.4l0,15.5c0,37.1,4.3,57,10.2,67.4c9.5,16.6,23.7,30,42.7,40.2l427.9,247.9
								c3.3,1.9,7.1,2.9,10.9,2.9c12.1,0,21.8-9.8,21.8-21.8l0-666.9l0.1-3c0.1-5.2,0.2-10.1,0.2-14.8l0-1.9
								c-0.1-25.7-2.2-44.2-6.2-55.4l-0.3-0.9c-4.9-12.7-36.6-35-94.9-66.6l-5.5-3C353.6,205.4,237.5,138.3,60.5,37.3L26.2,17.8
								C25.7,17.8,25.2,17.8,24.6,17.8z M50.8,2l-0.3,0C44.8,2.2,35,6.6,21.3,15.2l-0.8,0.5l6.1,0l0.3,0.1c2.8,0.3,5.5,1,8,2.2
								c265.3,126.2,421.7,219,469,278.6c2.7,2,5,5.3,7,10l25.7-7.9l0-0.2c-0.5-6.8-5.8-14.7-16.1-23.8l-0.7-0.7
								c-8.6-5.6-81.4-49-159.5-95.2l-36.6-21.6c-8.5-5-17-10-25.4-14.9l-19-11.2C146,53,58.5,3.2,51,2L50.8,2z M33.3,19.6l5.2,2.9
								c184.1,104.9,306.1,175.3,365.9,211.2l5.5,3.3c40.5,21.8,68.9,39.3,85.3,52.7C440.8,230.2,287,140.2,34,19.9
								C33.8,19.8,33.6,19.7,33.3,19.6z"/>
						</defs>
						<clipPath id="SVGID_8_">
							<use xlink:href="#SVGID_7_"  style="overflow:visible;"/>
						</clipPath>
						<g class="st6">
							<polygon points="0,0 538.6,0 538.6,1075 0,1075 							"/>
						</g>
					</g>
				</g>
				<g transform="translate(0.0 18.0)">
					<g>
						<defs>
							<path id="SVGID_9_" d="M12.9,6.9c1.8,0,3.5,0.4,5.1,1.2C293.7,138.4,455.7,233.9,504,294.8c10.7,7.8,15.3,37,13.6,87.7v687.7
								c0,6.6-5.4,12-12,12c-2.1,0-4.2-0.6-6-1.6L53.9,822.3c-19.3-10.3-33.7-24-43.4-40.9C7.7,776.6,0,760.2,0,713l0-6.8
								c0-77.1,0.3-302.3,0.8-675.6l0-11.7C0.8,12.3,6.2,6.9,12.9,6.9z"/>
						</defs>
						<clipPath id="SVGID_10_">
							<use xlink:href="#SVGID_9_"  style="overflow:visible;"/>
						</clipPath>
						<g class="st7">
							<polygon class="st8" points="0,6.9 518,6.9 518,1082.2 0,1082.2 							"/>
							<path class="st9" d="M18,8.1C293.7,138.4,455.7,233.9,504,294.8c10.7,7.8,15.3,37,13.6,87.7v687.7c0,6.6-5.4,12-12,12
								c-2.1,0-4.2-0.6-6-1.6L53.9,822.3l0,0c-19.3-10.3-33.7-24-43.4-40.9C7.7,776.6,0,760.2,0,713c0-70.7,0.3-302.1,0.8-694.1h0
								c0-6.6,5.4-12,12-12C14.6,6.9,16.4,7.3,18,8.1L18,8.1z"/>
						</g>
					</g>
				</g>
				<g transform="translate(80.0 522.0)">
					<g>
						<defs>
							<path id="SVGID_11_" d="M1,0.7c0.2,0,0.3,0,0.5,0.1l358,207.8c0.3,0.2,0.5,0.5,0.5,0.9v45.7c0,0.6-0.4,1-1,1
								c-0.2,0-0.3,0-0.5-0.1L0.5,50.7C0.2,50.5,0,50.2,0,49.8V1.7C0,1.2,0.4,0.7,1,0.7z"/>
						</defs>
						<clipPath id="SVGID_12_">
							<use xlink:href="#SVGID_11_"  style="overflow:visible;"/>
						</clipPath>
						<g class="st10">
							<polygon class="st2" points="0,0.7 360,0.7 360,256.3 0,256.3 							"/>
							<path class="st9" d="M1.5,0.9l358,207.8c0.3,0.2,0.5,0.5,0.5,0.9v45.7c0,0.6-0.4,1-1,1c-0.2,0-0.3,0-0.5-0.1L0.5,50.7
								C0.2,50.5,0,50.2,0,49.8V1.7c0-0.6,0.4-1,1-1C1.2,0.7,1.3,0.8,1.5,0.9z"/>
						</g>
					</g>
				</g>
				<g transform="translate(100.24156973569984 292.6681035081257) rotate(-21.0)">
					<g>
						<defs>
							<path id="SVGID_13_" d="M83.2,0c56.4,0,110.2,73.5,119.2,169.5c9,96-22.2,177.1-78.6,177.1C67.4,346.6,0,251.7,0,164
								S26.8,0,83.2,0z"/>
						</defs>
						<clipPath id="SVGID_14_">
							<use xlink:href="#SVGID_13_"  style="overflow:visible;"/>
						</clipPath>
						<g class="st11">
							<polygon class="st12" points="0,0 203.9,0 203.9,346.6 0,346.6 							"/>
							<path class="st5" d="M123.8,346.6c56.4,0,87.6-81.1,78.6-177.1C193.4,73.5,139.6,0,83.2,0S0,76.4,0,164
								S67.4,346.6,123.8,346.6z"/>
						</g>
					</g>
				</g>
				<g transform="translate(100.24156973570351 292.6681035081348) rotate(-21.0)">
					<g>
						<defs>
							<path id="SVGID_15_" d="M83.2,0c56.4,0,110.2,73.5,119.2,169.5c9,96-22.2,177.1-78.6,177.1C67.4,346.6,0,251.7,0,164
								S26.8,0,83.2,0z M83.2,2C32.4,2,2,68.4,2,164c0,85.3,65.7,180.6,121.8,180.6c53.2,0,85.8-76.7,76.6-174.9
								C191.7,75.8,139.1,2,83.2,2z"/>
						</defs>
						<clipPath id="SVGID_16_">
							<use xlink:href="#SVGID_15_"  style="overflow:visible;"/>
						</clipPath>
						<g class="st13">
							<polygon points="0,0 203.9,0 203.9,346.6 0,346.6 							"/>
						</g>
					</g>
				</g>
				<g transform="translate(170.0 422.0)">
					<g>
						<defs>
							<path id="SVGID_17_" d="M31.3,0c5.8,0,13.4,6,22.8,17.9v15.4c3.4,5.8,6.6,9.6,9.8,11.3c4.7,2.6,11.9,5.2,22.7,2.9
								c7.1-1.2,13.3-7,18.6-17.3l1.5-16.9c7.8,3.9,16.1,9.2,25,16C147.3,39.5,158.4,56.4,165,80v70.6c-9.6,2-16.7,2.8-21.4,2.4
								c-12-1-19.1-1-36.4-8.7c-32.4-14.5-47.7-29.2-61.7-43l-1.1-1.1c-0.2-0.2-0.4-0.4-0.6-0.5l-1.1-1.1
								c-3.7-3.6-7.4-7.2-11.4-10.7C20.1,74.9,9.6,60.5,0,44.6c1-16.4,3.4-25.9,7.1-28.4C10.1,12.4,22.6,0,31.3,0z"/>
						</defs>
						<clipPath id="SVGID_18_">
							<use xlink:href="#SVGID_17_"  style="overflow:visible;"/>
						</clipPath>
						<g class="st14">
							<polygon class="st2" points="0,0 165,0 165,153 0,153 							"/>
						</g>
					</g>
					<path class="st15" d="M31.3,0C22.6,0,10.1,12.4,7.1,16.2C3.4,18.7,1,28.1,0,44.6c9.6,15.9,20.1,30.4,31.3,43.3
						c20,17.3,32.7,37.1,75.9,56.4c17.3,7.7,24.4,7.7,36.4,8.7c4.6,0.4,11.7-0.4,21.4-2.4V80c-6.6-23.6-17.7-40.5-33.3-50.7
						c-8.9-6.7-17.2-12-25-16l-1.5,16.9c-5.3,10.3-11.5,16.1-18.6,17.3c-10.9,2.3-18-0.3-22.7-2.9c-3.1-1.8-6.4-5.5-9.8-11.3V17.9
						C44.7,6,37.1,0,31.3,0z M39.2,60v35.8 M112.7,87.8v57.7"/>
				</g>
				<g transform="translate(187.0 310.0)">
					<g>
						<defs>
							<path id="SVGID_19_" d="M89.1,112.1l-1.3,30.8c-1.6,5.8-7,11-16.1,15.5c-6.7,3.3-23.5,1.9-32.8-10c-2.2-2.8-2.9-9-2-18.6
								c12.5,1.5,21.7,1.5,27.7,0C70.5,128.4,78.7,122.5,89.1,112.1z M85.3,4.1c6.4,3.9,26.3,13.2,29.5,35.7
								c1.6,11.1,2.4,15.7,2.4,14l0-0.2c0-0.7-0.1-2-0.3-4c4.9,13.4,8.3,24.1,10.2,32.2c2.9,12.1-3,33.7-6.6,37
								c-2.4,2.2-8.9,6.5-19.5,12.8l-11.6-6.2v-13.6l-1.3-1c-9.1,10.5-17.7,16.5-25.7,18c-12.4,2.4-35,2-44.5-13.9
								c-5.2-8.8-7-13.3-7.6-17.1c-0.1,0.8-0.2,1.6-0.3,2.4C6.9,96.4,4.3,93,2.4,90c-2.9-4.6-3-20.8-1.3-24.2c1.7-3.4,3.4-12,9-13.9
								c0,0,0.1,0,0.1,0l0-3.3c0.3-0.1,0.5-0.1,0.8-0.2l-0.9-0.7c0.7-24.4,8.8-38.9,24.3-43.5C57.7-2.8,78.9,0.2,85.3,4.1z"/>
						</defs>
						<clipPath id="SVGID_20_">
							<use xlink:href="#SVGID_19_"  style="overflow:visible;"/>
						</clipPath>
						<g class="st16">
							<polygon class="st8" points="0,0 128,0 128,160 0,160 							"/>
						</g>
					</g>
					<path class="st15" d="M89.1,112.1l-1.3,30.8c-1.6,5.8-7,11-16.1,15.5c-6.7,3.3-23.5,1.9-32.8-10c-2.2-2.8-2.9-9-2-18.6
						c12.5,1.5,21.7,1.5,27.7,0C70.5,128.4,78.7,122.5,89.1,112.1z M85.3,4.1c6.4,3.9,26.3,13.2,29.5,35.7c1.6,11.1,2.4,15.7,2.4,14
						l0-0.2c0-0.7-0.1-2-0.3-4c4.9,13.4,8.3,24.1,10.2,32.2c2.9,12.1-3,33.7-6.6,37c-2.4,2.2-8.9,6.5-19.5,12.8l-11.6-6.2v-13.6
						l-1.3-1c-9.1,10.5-17.7,16.5-25.7,18c-12.4,2.4-35,2-44.5-13.9c-5.2-8.8-7-13.3-7.6-17.1c-0.1,0.8-0.2,1.6-0.3,2.4
						C6.9,96.4,4.3,93,2.4,90c-2.9-4.6-3-20.8-1.3-24.2c1.7-3.4,3.4-12,9-13.9c0,0,0.1,0,0.1,0l0-3.3c0.3-0.1,0.5-0.1,0.8-0.2
						l-0.9-0.7c0.7-24.4,8.8-38.9,24.3-43.5C57.7-2.8,78.9,0.2,85.3,4.1z"/>
				</g>
				<g transform="translate(197.0 333.0)">
					<g>
						<defs>
							<path id="SVGID_21_" d="M33.5,0c4.3,19.5,12.3,32.2,24,38.2s17.1,9.1,16.1,9.3v21.4h1.4c5.5-10.2,11-13,16.4-8.4
								c8.2,6.9,0.1,23.1-4,23.1c-4.2,1.7-7.1,2.7-8.5,3.1c-9.5,11.2-18.4,17.6-26.7,19.2c-12.4,2.4-34.9,2-44.4-13.9
								C1,80.5,0,76.3,0,71.4L0,71c0-1.6,0.1-3.3,0.1-5.4l0-39.9c12.6-3.7,21.1-8.5,25.6-14.5S32.7,1.5,33.5,0z"/>
						</defs>
						<clipPath id="SVGID_22_">
							<use xlink:href="#SVGID_21_"  style="overflow:visible;"/>
						</clipPath>
						<g class="st17">
							<polygon class="st8" points="0,0 95,0 95,107 0,107 							"/>
						</g>
					</g>
					<path class="st15" d="M75.1,68.9c5.5-10.2,11-13,16.4-8.4c8.2,6.9,0.1,23.1-4,23.1c-4.2,1.7-7.1,2.7-8.5,3.1
						c-9.5,11.2-18.4,17.6-26.7,19.2c-12.4,2.4-34.9,2-44.4-13.9S0.1,74.3,0.1,65.1c0-4.8,0-17.9,0-39.4
						c12.6-3.7,21.1-8.5,25.6-14.5S32.7,1.5,33.5,0c4.3,19.5,12.3,32.2,24,38.2s17.1,9.1,16.1,9.3v21.4H75.1z"/>
				</g>
				<g transform="translate(208.0 378.0)">
					<g>
						<defs>
							<ellipse id="SVGID_23_" cx="3" cy="5" rx="3" ry="5"/>
						</defs>
						<clipPath id="SVGID_24_">
							<use xlink:href="#SVGID_23_"  style="overflow:visible;"/>
						</clipPath>
						<g class="st18">
							<polygon points="0,0 6,0 6,10 0,10 							"/>
						</g>
					</g>
				</g>
				<g transform="translate(234.0 388.0)">
					<g>
						<defs>
							<ellipse id="SVGID_25_" cx="3" cy="5" rx="3" ry="5"/>
						</defs>
						<clipPath id="SVGID_26_">
							<use xlink:href="#SVGID_25_"  style="overflow:visible;"/>
						</clipPath>
						<g class="st19">
							<polygon points="0,0 6,0 6,10 0,10 							"/>
						</g>
					</g>
				</g>
				<g transform="translate(204.0 368.0)">
					<g>
						<defs>
							<path id="SVGID_27_" d="M7.7,44.9c2.3,2.4,5.6,5,7.9,5.7c1.9,0.5,5.8,0.5,11.8,0c0.6-0.1,1,0.3,1.1,0.9
								c0.1,0.6-0.3,1-0.9,1.1l-2.2,0.2c-5,0.4-8.4,0.3-10.3-0.2c-2.7-0.8-6.3-3.6-8.8-6.2c-0.4-0.4-0.4-1,0-1.4
								C6.7,44.5,7.3,44.5,7.7,44.9z M16,22.6c0.6,0,1,0.4,1,1s-0.4,1-1,1c-4.4,0-7.6,3-6.1,7.1c0.8,2.1,2.7,3.3,5.4,3.9
								c1,0.2,2,0.3,3,0.3c0.6,0,1,0,1.3,0c0.6-0.1,1,0.3,1.1,0.9c0.1,0.6-0.3,1-0.9,1.1l-0.4,0c-0.3,0-0.7,0-1.1,0
								c-1.1,0-2.3-0.1-3.4-0.3C11.5,36.9,9,35.3,8,32.4C5.9,26.7,10.3,22.6,16,22.6z M40.4,10.9c1.9,1.2,4.1,3.2,6.4,6.2
								c0.3,0.4,0.3,1.1-0.2,1.4c-0.4,0.3-1.1,0.3-1.4-0.2c-2.2-2.8-4.1-4.7-5.8-5.7c-1.8-1.1-4.9-0.6-8,0.7c-0.5,0.2-1.1,0-1.3-0.5
								c-0.2-0.5,0-1.1,0.5-1.3C34.3,10,37.8,9.4,40.4,10.9z M10.4,0.9c1.9,1.2,4.1,3.2,6.4,6.2c0.3,0.4,0.3,1.1-0.2,1.4
								c-0.4,0.3-1.1,0.3-1.4-0.2C13,5.5,11,3.6,9.4,2.6C7.5,1.5,4.5,2,1.4,3.4c-0.5,0.2-1.1,0-1.3-0.5s0-1.1,0.5-1.3
								C4.3-0.1,7.8-0.6,10.4,0.9z"/>
						</defs>
						<clipPath id="SVGID_28_">
							<use xlink:href="#SVGID_27_"  style="overflow:visible;"/>
						</clipPath>
						<g class="st20">
							<polygon points="0,0 47,0 47,53 0,53 							"/>
						</g>
					</g>
				</g>
				<g transform="translate(80.0 599.0)">
					<g>
						<defs>
							<path id="SVGID_29_" d="M4,2.9c0.7,0,1.4,0.2,2,0.5l345,197.5c1.2,0.7,2,2,2,3.5v116.7c0,2.2-1.8,4-4,4c-0.7,0-1.4-0.2-2-0.5
								L2,126.6c-1.2-0.7-2-2-2-3.5V6.9C0,4.7,1.8,2.9,4,2.9z"/>
						</defs>
						<clipPath id="SVGID_30_">
							<use xlink:href="#SVGID_29_"  style="overflow:visible;"/>
						</clipPath>
						<g class="st21">
							<polygon class="st8" points="0,2.9 353,2.9 353,325.1 0,325.1 							"/>
							<path class="st9" d="M6,3.4l345,197.5c1.2,0.7,2,2,2,3.5v116.7c0,2.2-1.8,4-4,4c-0.7,0-1.4-0.2-2-0.5L2,126.6
								c-1.2-0.7-2-2-2-3.5V6.9c0-2.2,1.8-4,4-4C4.7,2.9,5.4,3.1,6,3.4z"/>
						</g>
					</g>
				</g>
				<g transform="translate(7.0 10.0)">
					<g>
						<defs>
							<path id="SVGID_31_" d="M33.7,0c14.4,0.6,451.1,260.2,470,272.3c17.2,11.1,26.5,22.5,27.9,34l-27.4,8.4
								c-12.2-18.6-49.4-44.5-111.4-77.8C333.8,201.4,206,127.7,9.2,15.7H0C16.1,5.2,27.4,0,33.7,0z"/>
						</defs>
						<clipPath id="SVGID_32_">
							<use xlink:href="#SVGID_31_"  style="overflow:visible;"/>
						</clipPath>
						<g class="st22">
							<polygon class="st8" points="0,0 531.6,0 531.6,314.7 0,314.7 							"/>
						</g>
					</g>
					<path class="st15" d="M0,15.7C16.1,5.2,27.4,0,33.7,0c14.4,0.6,451.1,260.2,470,272.3c17.2,11.1,26.5,22.5,27.9,34l-27.4,8.4
						c-12.2-18.6-49.4-44.5-111.4-77.8C333.8,201.4,206,127.7,9.2,15.7H0z"/>
				</g>
				<g transform="translate(362.0 348.0)">
					<g>
						<defs>
							<polygon id="SVGID_33_" points="0,0 342,199.5 336.7,726 0,530.9 							"/>
						</defs>
						<clipPath id="SVGID_34_">
							<use xlink:href="#SVGID_33_"  style="overflow:visible;"/>
						</clipPath>
						<g class="st23">
							<polygon class="st2" points="0,0 342,0 342,726 0,726 							"/>
							<polygon class="st9" points="0,0 342,199.5 336.7,726 0,530.9 0,0 							"/>
						</g>
					</g>
				</g>
				<g transform="translate(358.0 351.0)">
					<g>
						<defs>
							<polygon id="SVGID_35_" points="0,0 342,199.5 336.7,726 0,530.9 							"/>
						</defs>
						<clipPath id="SVGID_36_">
							<use xlink:href="#SVGID_35_"  style="overflow:visible;"/>
						</clipPath>
						<g class="st24">
							<polygon class="st8" points="0,0 342,0 342,726 0,726 							"/>
							<polygon class="st5" points="0,0 342,199.5 336.7,726 0,530.9 0,0 							"/>
						</g>
					</g>
				</g>
				<g transform="translate(358.0 351.0)">
					<g>
						<defs>
							<polygon id="SVGID_37_" points="0,0 342,199.5 336.7,726 0,530.9 							"/>
						</defs>
						<clipPath id="SVGID_38_">
							<use xlink:href="#SVGID_37_"  style="overflow:visible;"/>
						</clipPath>
						<g class="st25">
							<polygon class="st8" points="0,0 342,0 342,726 0,726 							"/>
							<polygon class="st9" points="0,0 342,199.5 336.7,726 0,530.9 0,0 							"/>
						</g>
					</g>
				</g>
				<g transform="translate(393.0 436.0)">
					<path class="st15" d="M2.1,0l121.7,71.1v134.4L2.1,136.2V0z M2.1,214v95.1L260,459.7v-97.5L2.1,214z M9.1,169.4l200.4,114.9
						 M2,179.8L180.8,280 M136,171.4l55.5,33.7 M136,143.7l91.3,53.5 M136,106l125,75.3 M136,76.3l125,75.3 M2,344.2l259,148.2
						 M2,370l215.4,122.4 M2,391.8L261,540 M0,409.6l181.6,102.6"/>
				</g>
				<g transform="translate(395.0 649.0)">
					<g>
						<defs>
							<polygon id="SVGID_39_" points="0,0 258,148.4 258,246 0,95.2 							"/>
						</defs>
						<clipPath id="SVGID_40_">
							<use xlink:href="#SVGID_39_"  style="overflow:visible;"/>
						</clipPath>
						<g class="st26">
							<polygon class="st2" points="0,0 258,0 258,246 0,246 							"/>
						</g>
					</g>
					<polygon class="st27" points="0,0 0,95.2 258,246 258,148.4 0,0 					"/>
				</g>
			</g>
		</g>
	</g>
</g>
</svg>
