<?xml version="1.0" encoding="UTF-8"?>
<svg version="1.1" width="1322px" height="1109px" viewBox="0 0 1322.0 1109.0" xmlns="http://www.w3.org/2000/svg"
     xmlns:xlink="http://www.w3.org/1999/xlink">
    <defs>
        <clipPath id="i0">
            <path d="M2208,0 L2208,1108 L0,1108 L0,0 L2208,0 Z"></path>
        </clipPath>
        <clipPath id="i1">
            <path d="M384.542164,0 L1024,376.851852 L624.736707,604.426151 C624.11401,604.781079 623.348991,604.775654 622.73139,604.41193 L0,237.666291 L384.542164,0 Z"></path>
        </clipPath>
        <clipPath id="i2">
            <path d="M0,0 L615.484242,375.649823 C615.781773,375.831415 615.963277,376.154832 615.963277,376.5034 L615.963277,413.205321 C615.963277,413.388585 615.912915,413.568326 615.817694,413.724909 C615.530733,414.196791 614.91557,414.346699 614.443689,414.059738 L0,40.4041587 L0,0 Z"></path>
        </clipPath>
        <clipPath id="i3">
            <path d="M432,0 L432,491.935368 C432,493.371081 431.230553,494.696672 429.983863,495.408737 L0,741 L0,704.189768 L399.674582,476.591039 L399.674582,19.9533569 L432,0 Z"></path>
        </clipPath>
        <clipPath id="i4">
            <path d="M2,1.424468 C2.34429734,1.424468 2.6827643,1.51334959 2.98264009,1.68250977 L638.985558,360.452288 L639,817 L0,445.546297 L0,3.424468 C-5.90843048e-15,2.3198985 0.8954305,1.424468 2,1.424468 Z"></path>
        </clipPath>
        <clipPath id="i5">
            <path d="M34.5946723,1.68270316 L670,355.093107 L637.891932,375 L0,18.88262 L28.5983452,1.77702343 C30.4369379,0.677301582 32.7224012,0.641351989 34.5946723,1.68270316 Z"></path>
        </clipPath>
        <clipPath id="i6">
            <path d="M166.639964,1.66919172 L670.045595,290.329692 C672.920236,291.978055 673.914331,295.644675 672.265968,298.519316 C671.748008,299.422605 671.003891,300.17555 670.106774,300.704127 L523.260117,387.225406 C521.39864,388.322179 519.091236,388.333446 517.219137,387.254905 L9.27395609,94.6209825 C6.40266353,92.966793 5.41600659,89.2981649 7.07019613,86.4268723 C7.62169326,85.4696002 8.42678262,84.6831788 9.39672745,84.1542873 L160.782934,1.60643003 C162.613558,0.608227724 164.831151,0.6319906 166.639964,1.66919172 Z"></path>
        </clipPath>
        <clipPath id="i7">
            <path d="M124.587162,1.83204794 L325.225378,118.128352 C328.092298,119.790109 329.069274,123.461327 327.407516,126.328247 C326.900999,127.202107 326.182074,127.933955 325.317375,128.455959 L206.612602,200.116075 C204.695191,201.273584 202.292705,201.266794 200.381867,200.098466 L8.18930938,82.5876717 C5.3621735,80.8590981 4.47161282,77.1659658 6.20018643,74.3388299 C6.67533452,73.5617105 7.32118042,72.9029726 8.08875816,72.4125597 L118.347873,1.96693457 C120.23879,0.758809222 122.6458,0.706772301 124.587162,1.83204794 Z"></path>
        </clipPath>
        <clipPath id="i8">
            <path d="M43.9298063,0 L334,168.208913 L293.718921,473 L0,301.318489 L43.9298063,0 Z"></path>
        </clipPath>
        <clipPath id="i9">
            <path d="M33.0319554,1.22797956 C33.112675,1.38562143 33.1500801,1.56187283 33.1403459,1.73871133 L18.9365641,259.775046 C18.9206882,260.063458 18.7808775,260.330918 18.5531228,260.508574 L1.74242884,273.621442 C1.30695767,273.961123 0.678572531,273.88347 0.338891359,273.447999 C0.189475317,273.256448 0.114898101,273.017055 0.129089347,272.774536 L15.561152,9.05032793 L31.6860881,0.793650941 C32.1776756,0.541936499 32.7802409,0.736392044 33.0319554,1.22797956 Z"></path>
        </clipPath>
        <clipPath id="i10">
            <path d="M14.7261527,1.08724014 C14.9885226,1.09972212 15.2458643,1.16376396 15.483482,1.27570852 L415.340172,189.652976 L400.894067,452.723153 C400.833502,453.826061 399.890321,454.671047 398.787413,454.610482 C398.532334,454.596475 398.2823,454.533729 398.050832,454.425637 L2.43046316,269.677171 C0.960154367,268.99056 0.0503565925,267.483692 0.127468923,265.862798 L12.6333717,2.98994027 C12.6858611,1.88661863 13.6228311,1.03475076 14.7261527,1.08724014 Z"></path>
        </clipPath>
        <clipPath id="i11">
            <path d="M15.9112932,1.1573134 C16.1666317,1.182684 16.4147028,1.25695258 16.6419756,1.37606824 L154.820805,73.7968074 C155.535048,74.1711482 155.95461,74.9378092 155.884885,75.7411845 L143.715341,215.9578 C143.619834,217.058233 142.650332,217.872886 141.5499,217.777378 C141.275899,217.753597 141.009748,217.673559 140.768079,217.542266 L1.16673126,141.700155 C0.459723063,141.316054 0.0517293772,140.545675 0.131283997,139.74501 L13.7233457,2.94976584 C13.8325586,1.85060875 14.8121361,1.04810045 15.9112932,1.1573134 Z"></path>
        </clipPath>
        <clipPath id="i12">
            <path d="M3.04511095,1.09093894 C3.3147686,1.09951374 3.57990376,1.16255829 3.82455967,1.27627837 L400.311894,185.570077 C401.067094,185.921107 401.525737,186.703371 401.46324,187.533819 L399.667239,211.398484 L0,33.9254715 L0.982555805,3.02636299 C1.01766209,1.92235152 1.94109948,1.05583265 3.04511095,1.09093894 Z"></path>
        </clipPath>
        <clipPath id="i13">
            <path d="M15.3602311,0.96805101 L418.421646,186.23131 C419.425274,186.692618 419.864911,187.880183 419.403604,188.883811 C419.198658,189.329693 418.836937,189.684665 418.387274,189.881177 L405.271559,195.61301 C404.748116,195.841765 404.151836,195.835774 403.633095,195.596546 L0,9.4532685 L11.3670075,1.34595319 C12.5341817,0.513486969 14.0576139,0.369315651 15.3602311,0.96805101 Z"></path>
        </clipPath>
        <clipPath id="i14">
            <path d="M35,0 L35,80.7706598 L0,103 L0,19.2304444 L35,0 Z"></path>
        </clipPath>
        <clipPath id="i15">
            <path d="M82.568499,0.12819544 C123.046863,-5.24156508 147.525239,159.84497 189.287883,163.998694 C231.050526,168.152418 224.04906,48.541376 255.916327,48.541376 C291.953222,48.6011111 309.498627,119.894976 324.584636,206.318892 C336.397354,237.209253 348.196123,261.296536 369.187679,265.524929 C399.847722,270.408275 395.673812,212.945224 441.865082,223.06606 C472.082049,228.420886 476.681911,275.022813 495.342499,354.53879 C498.71302,377.807041 509.265521,402.975438 527,430.04398 L527,511 L0,204.070292 L0,124.238572 C5.19134499,131.290161 13.4835126,131.290161 24.8765028,124.238572 C41.9659881,113.661189 42.0901352,5.49795596 82.568499,0.12819544 Z"></path>
        </clipPath>
        <clipPath id="i16">
            <path d="M10.7480469,0 L34.9941406,13.9511719 L23.0957031,95.5605469 L0,78.9394531 L10.7480469,0 Z"></path>
        </clipPath>
        <clipPath id="i17">
            <path d="M38.9042969,0 L22.5410156,56.7978516 L16.7734375,106.59668 L0,113.418945 L7.63085937,56.7978516 L24.7929688,6.29199219 L38.9042969,0 Z"></path>
        </clipPath>
        <clipPath id="i18">
            <path d="M19.7331532,0.702612124 C27.6062,-0.796411313 37.7741688,0.290502749 44.3415516,2.20163556 C48.7198068,3.4757241 53.9076323,6.75843895 59.9050282,12.0497801 L45.7937,18.9682371 L40.5720204,18.9682371 L25.9489735,17.060034 C8.55782138,13.7835712 -0.0915926828,12.1134865 0.000731294807,12.0497801 C1.0113606,11.3524141 2.04455768,10.6327957 3.08817578,9.90978659 L3.98497436,9.28967409 C9.67727334,5.3626084 15.5743996,1.49443633 19.7331532,0.702612124 Z"></path>
        </clipPath>
        <clipPath id="i19">
            <path d="M47.4246608,3.75255576 C53.5197129,6.81635784 58.3549993,10.2323735 61.9305202,14.0006026 L44.7684108,64.9420089 L37.1375514,121.563103 C6.15317642,95.4615401 -5.44317775,63.8202641 2.34848892,26.6392745 C17.3484889,-7.39588174 38.2820827,-0.843147364 47.4246608,3.75255576 Z"></path>
        </clipPath>
        <clipPath id="i20">
            <path d="M33.5725267,0 C32.2307298,11.828776 29.2453783,20.1533203 24.616472,24.9736328 C17.6731126,32.2041016 4.09010482,38.8007812 0.703386072,38.8007812 C-1.55442643,38.8007812 1.62330795,27.851237 10.2365892,5.95214844 L20.0481126,4.23242188 L33.5725267,0 Z"></path>
        </clipPath>
        <clipPath id="i21">
            <path d="M10.6767578,0 L52.5966797,19.6166992 C51.2945964,34.4978841 46.5136719,45.9371745 38.2539062,53.9345703 C29.9941406,61.9319661 17.2428385,61.9319661 0,53.9345703 L10.6767578,0 Z"></path>
        </clipPath>
        <clipPath id="i22">
            <path d="M6.32324219,0 L55,22.3193359 L41.4755859,26.5517578 L0,3.78710937 L6.32324219,0 Z"></path>
        </clipPath>
        <clipPath id="i23">
            <path d="M11.8874688,0 C23.0648776,12.8863932 29.5432305,23.5429688 31.3225274,31.9697266 C31.3462578,32.0821138 31.3607883,32.2036617 31.3934396,32.3081483 C33.8591856,40.1987447 35.0920586,50.8741862 35.0920586,64.3344727 L22.4577813,67.6689453 C15.3031589,51.8894857 10.5679701,41.5868327 8.25221487,36.7609863 C5.93645966,31.93514 3.18572137,21.4752604 0,5.38134766 L11.8874688,0 Z"></path>
        </clipPath>
        <clipPath id="i24">
            <path d="M21.4145508,0 C29.2364909,10.8815104 34.4944661,19.3393555 37.1884766,25.3735352 C40.1630859,30.3432617 42.0720911,41.7299805 42.9154921,59.5336914 L0,40.6992187 Z"></path>
        </clipPath>
    </defs>
    <g transform="translate(-412.0 0.0)">
        <g clip-path="url(#i0)">
            <g transform="translate(412.5135760425296 0.0)">
                <g transform="translate(194.48642395747083 455.0)">
                    <g clip-path="url(#i1)">
                        <polygon points="0,0 1024,0 1024,604.688585 0,604.688585 0,0" stroke="none"
                                 fill="#FFFFFF"></polygon>
                    </g>
                    <path d="M384.542164,0 L0,237.666291 L622.73139,604.41193 C623.348991,604.775654 624.11401,604.781079 624.736707,604.426151 L1024,376.851852 L1024,376.851852 L384.542164,0 Z"
                          stroke="#333333" stroke-width="1.8" fill="none" stroke-miterlimit="10"></path>
                </g>
                <g transform="translate(194.28689616404301 693.079373656595) rotate(-1.0)">
                    <g clip-path="url(#i2)">
                        <polygon
                                points="-3.63797881e-12,0 615.963277,0 615.963277,414.205467 -3.63797881e-12,414.205467 -3.63797881e-12,0"
                                stroke="none" fill="#84DDD4"></polygon>
                    </g>
                    <path d="M0,0 L0,40.4041587 L614.443689,414.059738 C614.91557,414.346699 615.530733,414.196791 615.817694,413.724909 C615.912915,413.568326 615.963277,413.388585 615.963277,413.205321 L615.963277,376.5034 C615.963277,376.154832 615.781773,375.831415 615.484242,375.649823 L0,0 L0,0 Z"
                          stroke="#333333" stroke-width="1.8" fill="none" stroke-miterlimit="10"></path>
                </g>
                <g transform="translate(817.4864239574708 355.0)">
                    <g clip-path="url(#i3)">
                        <polygon points="0,0 432,0 432,741 0,741 0,0" stroke="none" fill="#FFFFFF"></polygon>
                    </g>
                    <path d="M0,704.189768 L0,741 L429.983863,495.408737 C431.230553,494.696672 432,493.371081 432,491.935368 L432,0 L432,0 L399.674582,19.9533569 L399.674582,476.591039 L0,704.189768 Z"
                          stroke="#333333" stroke-width="1.8" fill="none" stroke-miterlimit="10"></path>
                </g>
                <g transform="translate(579.4864239574708 14.0)">
                    <g clip-path="url(#i4)">
                        <polygon points="0,1.424468 639,1.424468 639,817 0,817 0,1.424468" stroke="none"
                                 fill="#84DDD4"></polygon>
                        <path d="M2.98264009,1.68250977 L638.985558,360.452288 L638.985558,360.452288 L639,817 L0,445.546297 L0,3.424468 C-5.90843048e-15,2.3198985 0.8954305,1.424468 2,1.424468 C2.34429734,1.424468 2.6827643,1.51334959 2.98264009,1.68250977 Z"
                              stroke="#333333" stroke-width="3.6" fill="none" stroke-miterlimit="5"></path>
                    </g>
                </g>
                <g transform="translate(578.4864239574708 0.0)">
                    <g clip-path="url(#i5)">
                        <polygon points="0,0.926217894 670,0.926217894 670,375 0,375 0,0.926217894" stroke="none"
                                 fill="#FFFFFF"></polygon>
                        <path d="M34.5946723,1.68270316 L670,355.093107 L670,355.093107 L637.891932,375 L0,18.88262 L28.5983452,1.77702343 C30.4369379,0.677301582 32.7224012,0.641351989 34.5946723,1.68270316 Z"
                              stroke="#333333" stroke-width="3.6" fill="none" stroke-miterlimit="5"></path>
                    </g>
                </g>
                <g transform="translate(442.48642395747083 519.0)">
                    <g clip-path="url(#i6)">
                        <polygon
                                points="6.26812416,0.874189774 673.061988,0.874189774 673.061988,388.05597 6.26812416,388.05597 6.26812416,0.874189774"
                                stroke="none" fill="#E4FEFB"></polygon>
                    </g>
                </g>
                <g transform="translate(457.48642395747083 715.0)">
                    <g clip-path="url(#i7)">
                        <path d="M124.587162,1.83204794 L325.225378,118.128352 C328.092298,119.790109 329.069274,123.461327 327.407516,126.328247 C326.900999,127.202107 326.182074,127.933955 325.317375,128.455959 L206.612602,200.116075 C204.695191,201.273584 202.292705,201.266794 200.381867,200.098466 L8.18930938,82.5876717 C5.3621735,80.8590981 4.47161282,77.1659658 6.20018643,74.3388299 C6.67533452,73.5617105 7.32118042,72.9029726 8.08875816,72.4125597 L118.347873,1.96693457 C120.23879,0.758809222 122.6458,0.706772301 124.587162,1.83204794 Z"
                              stroke="rgba(150, 150, 150, 0.449574)" stroke-width="4" fill="none"
                              stroke-miterlimit="5"></path>
                    </g>
                </g>
                <g transform="translate(597.4864239574708 128.0)">
                    <g clip-path="url(#i8)">
                        <polygon points="0,0 334,0 334,473 0,473 0,0" stroke="none" fill="#FFFFFF"></polygon>
                    </g>
                </g>
                <g transform="translate(854.5940412997807 301.24437461517385)">
                    <g transform="translate(415.5838246779761 208.98393551165194) rotate(4.0)">
                        <g clip-path="url(#i9)">
                            <polygon
                                    points="0.127380619,0.683537439 33.1418577,0.683537439 33.1418577,273.832997 0.127380619,273.832997 0.127380619,0.683537439"
                                    stroke="none" fill="#FFFFFF"></polygon>
                            <path d="M15.561152,9.05032793 L31.6860881,0.793650941 C32.1776756,0.541936499 32.7802409,0.736392044 33.0319554,1.22797956 C33.112675,1.38562143 33.1500801,1.56187283 33.1403459,1.73871133 L18.9365641,259.775046 C18.9206882,260.063458 18.7808775,260.330918 18.5531228,260.508574 L1.74242884,273.621442 C1.30695767,273.961123 0.678572531,273.88347 0.338891359,273.447999 C0.189475317,273.256448 0.114898101,273.017055 0.129089347,272.774536 L15.561152,9.05032793 L15.561152,9.05032793 Z"
                                  stroke="#333333" stroke-width="3.6" fill="none" stroke-miterlimit="5"></path>
                        </g>
                    </g>
                    <g transform="translate(31.78646386758956 -3.694822225952521e-13) rotate(4.0)">
                        <g clip-path="url(#i10)">
                            <polygon
                                    points="0.122924285,1.08493905 415.340172,1.08493905 415.340172,454.613545 0.122924285,454.613545 0.122924285,1.08493905"
                                    stroke="none" fill="#FFFFFF"></polygon>
                            <path d="M15.483482,1.27570852 L415.340172,189.652976 L415.340172,189.652976 L400.894067,452.723153 C400.833502,453.826061 399.890321,454.671047 398.787413,454.610482 C398.532334,454.596475 398.2823,454.533729 398.050832,454.425637 L2.43046316,269.677171 C0.960154367,268.99056 0.0503565925,267.483692 0.127468923,265.862798 L12.6333717,2.98994027 C12.6858611,1.88661863 13.6228311,1.03475076 14.7261527,1.08724014 C14.9885226,1.09972212 15.2458643,1.16376396 15.483482,1.27570852 Z"
                                  stroke="#333333" stroke-width="3.6" fill="none" stroke-miterlimit="5"></path>
                        </g>
                    </g>
                </g>
                <g transform="translate(914.4864239574708 406.0)">
                    <g clip-path="url(#i11)">
                        <path d="M16.6419756,1.37606824 L154.820805,73.7968074 C155.535048,74.1711482 155.95461,74.9378092 155.884885,75.7411845 L143.715341,215.9578 C143.619834,217.058233 142.650332,217.872886 141.5499,217.777378 C141.275899,217.753597 141.009748,217.673559 140.768079,217.542266 L1.16673126,141.700155 C0.459723063,141.316054 0.0517293772,140.545675 0.131283997,139.74501 L13.7233457,2.94976584 C13.8325586,1.85060875 14.8121361,1.04810045 15.9112932,1.1573134 C16.1666317,1.182684 16.4147028,1.25695258 16.6419756,1.37606824 Z"
                              stroke="rgba(0, 0, 0, 0.730059)" stroke-width="3.6" fill="none"
                              stroke-miterlimit="5"></path>
                    </g>
                </g>
                <g transform="translate(900.9883862008635 305.28802861927903) rotate(4.0)">
                    <g clip-path="url(#i12)">
                        <polygon
                                points="0,1.08990879 401.46891,1.08990879 401.46891,211.398484 0,211.398484 0,1.08990879"
                                stroke="none" fill="#84DDD4"></polygon>
                        <path d="M3.82455967,1.27627837 L400.311894,185.570077 C401.067094,185.921107 401.525737,186.703371 401.46324,187.533819 L399.667239,211.398484 L399.667239,211.398484 L0,33.9254715 L0.982555805,3.02636299 C1.01766209,1.92235152 1.94109948,1.05583265 3.04511095,1.09093894 C3.3147686,1.09951374 3.57990376,1.16255829 3.82455967,1.27627837 Z"
                              stroke="#333333" stroke-width="0.8" fill="none" stroke-miterlimit="5"></path>
                    </g>
                </g>
                <g transform="translate(899.6863534279308 295.69985399748316) rotate(4.0)">
                    <g clip-path="url(#i13)">
                        <polygon
                                points="-3.63797881e-12,0.602488784 419.586859,0.602488784 419.586859,195.780373 -3.63797881e-12,195.780373 -3.63797881e-12,0.602488784"
                                stroke="none" fill="#FFFFFF"></polygon>
                        <path d="M0,9.4532685 L11.3670075,1.34595319 C12.5341817,0.513486969 14.0576139,0.369315651 15.3602311,0.96805101 L418.421646,186.23131 C419.425274,186.692618 419.864911,187.880183 419.403604,188.883811 C419.198658,189.329693 418.836937,189.684665 418.387274,189.881177 L405.271559,195.61301 C404.748116,195.841765 404.151836,195.835774 403.633095,195.596546 L0,9.4532685 L0,9.4532685 Z"
                              stroke="#333333" stroke-width="3.6" fill="none" stroke-miterlimit="5"></path>
                    </g>
                </g>
                <g transform="translate(192.48642395747083 356.0)">
                    <g clip-path="url(#i14)">
                        <polygon points="0,0 35,0 35,103 0,103 0,0" stroke="none" fill="#FFFFFF"></polygon>
                        <polygon points="0,19.2304444 35,0 35,80.7706598 0,103 0,19.2304444 0,19.2304444"
                                 stroke="#000000" stroke-width="2" fill="none" stroke-miterlimit="5"></polygon>
                    </g>
                </g>
                <g transform="translate(224.48642395747083 232.0)">
                    <g clip-path="url(#i15)">
                        <polygon points="0,0 527,0 527,511 0,511 0,0" stroke="none" fill="#FFFFFF"></polygon>
                    </g>
                    <path d="M0,124.238572 L0,204.070292 L527,511 L527,430.04398 C509.265521,402.975438 498.71302,377.807041 495.342499,354.53879 C476.681911,275.022813 472.082049,228.420886 441.865082,223.06606 C395.673812,212.945224 399.847722,270.408275 369.187679,265.524929 C348.196123,261.296536 336.397354,237.209253 324.584636,206.318892 C309.498627,119.894976 291.953222,48.6011111 255.916327,48.541376 C224.04906,48.541376 231.050526,168.152418 189.287883,163.998694 C147.525239,159.84497 123.046863,-5.24156508 82.568499,0.12819544 C42.0901352,5.49795596 41.9659881,113.661189 24.8765028,124.238572 C13.4835126,131.290161 5.19134499,131.290161 0,124.238572 Z"
                          stroke="#000000" stroke-width="1.8" fill="none" stroke-miterlimit="10"></path>
                </g>
                <g transform="translate(192.48642395747083 255.0)">
                    <g clip-path="url(#i15)">
                        <polygon points="0,0 527,0 527,511 0,511 0,0" stroke="none" fill="#84DDD4"></polygon>
                    </g>
                    <path d="M0,124.238572 L0,204.070292 L527,511 L527,430.04398 C509.265521,402.975438 498.71302,377.807041 495.342499,354.53879 C476.681911,275.022813 472.082049,228.420886 441.865082,223.06606 C395.673812,212.945224 399.847722,270.408275 369.187679,265.524929 C348.196123,261.296536 336.397354,237.209253 324.584636,206.318892 C309.498627,119.894976 291.953222,48.6011111 255.916327,48.541376 C224.04906,48.541376 231.050526,168.152418 189.287883,163.998694 C147.525239,159.84497 123.046863,-5.24156508 82.568499,0.12819544 C42.0901352,5.49795596 41.9659881,113.661189 24.8765028,124.238572 C13.4835126,131.290161 5.19134499,131.290161 0,124.238572 Z"
                          stroke="#000000" stroke-width="1.8" fill="none" stroke-miterlimit="10"></path>
                </g>
                <g transform="translate(719.4864239574708 663.0)">
                    <g clip-path="url(#i14)">
                        <polygon points="0,0 35,0 35,103 0,103 0,0" stroke="none" fill="#000000"></polygon>
                        <polygon points="0,19.2304444 35,0 35,80.7706598 0,103 0,19.2304444 0,19.2304444"
                                 stroke="#000000" stroke-width="2" fill="none" stroke-miterlimit="5"></polygon>
                    </g>
                </g>
                <g transform="translate(193.25852945970837 459.31965095971645)">
                    <path d="M0,0 L705.363335,408.201849 M706.403833,407.455537 L698.39841,388.715312 M706.40386,409.093633 L686.171638,411.530845"
                          stroke="#000000" stroke-width="1.8" fill="none" stroke-linecap="round"
                          stroke-miterlimit="10"></path>
                </g>
                <g transform="translate(191.1916026108873 459.3196509597159) rotate(-119.99999999999999)">
                    <path d="M1.62003744e-12,-2.04636308e-12 L369.525967,215.732598 M375.563528,217.985176 L367.562194,199.253586 M375.563528,219.622529 L355.340828,222.058965"
                          stroke="#000000" stroke-width="1.8" fill="none" stroke-linecap="round"
                          stroke-miterlimit="10"></path>
                </g>
                <g transform="translate(664.4864239574708 251.61180772538046)">
                    <path d="M10.7480469,20.8276454 L34.9941406,34.7788173 L23.0957031,116.388192 L0,99.7670985 L10.7480469,20.8276454 Z M25.3280402,0 L22.1962891,28.0493251 M11.6186523,106.895516 L8.19628906,130.049325"
                          stroke="#000000" stroke-width="1.6" fill="none" stroke-miterlimit="10"></path>
                </g>
                <g transform="translate(694.3008770824708 299.61180772538046)">
                    <path d="M10.9335937,20.8276454 L33.9023438,34.8276454 L23.28125,116.388192 L0,106.388192 L10.9335937,20.8276454 Z M25.513587,0 L22.3818359,28.0493251 M11.7187417,111.130932 L8.75611185,128.967719"
                          stroke="#000000" stroke-width="1.6" fill="none" stroke-miterlimit="10"></path>
                </g>
                <g transform="translate(765.4864239574708 282.61180772538046)">
                    <path d="M9.74804688,25.8276454 L33.9941406,39.7788173 L23.5136719,104.813974 L0,89.7670985 L9.74804688,25.8276454 Z M24.3280402,0 L20.65625,32 M11.8671875,97.0493251 L7.19628906,129.049325"
                          stroke="#000000" stroke-width="1.6" fill="none" stroke-miterlimit="10"></path>
                </g>
                <g transform="translate(734.4864239574708 257.439453125)">
                    <g clip-path="url(#i16)">
                        <polygon points="0,0 34.9941406,0 34.9941406,95.5605469 0,95.5605469 0,0" stroke="none"
                                 fill="#B8D3DC"></polygon>
                    </g>
                    <polygon
                            points="10.7480469,0 34.9941406,13.9511719 23.0957031,95.5605469 0,78.9394531 10.7480469,0 10.7480469,0"
                            stroke="#000000" stroke-width="1.6" fill="none" stroke-miterlimit="10"></polygon>
                </g>
                <g transform="translate(756.6827130199708 236.61180772538046)">
                    <path d="M3.13175109,0 L0,28.0493251" stroke="#000000" stroke-width="1.6" fill="none"
                          stroke-miterlimit="10"></path>
                </g>
                <g transform="translate(742.6827130199708 343.50732421875)">
                    <path d="M3.42236328,0 L0,23.1538086" stroke="#000000" stroke-width="1.6" fill="none"
                          stroke-miterlimit="10"></path>
                </g>
                <g transform="translate(797.4864239574708 312.6437426720886)">
                    <path d="M8.74804687,30.7957105 L32.9941406,44.7468823 L23.2988281,99.0173901 L0,85.7351636 L8.74804687,30.7957105 Z M24.6593824,0 L20.6686577,37.9361301 M11.7929687,91.8635815 L6.19628906,129.01739"
                          stroke="#000000" stroke-width="1.6" fill="none" stroke-miterlimit="10"></path>
                </g>
                <g transform="translate(825.4864239574708 353.61180772538046)">
                    <path d="M10.7480469,27.8276454 L34.9941406,41.7788173 L23.0957031,114.388192 L0,97.7670985 L10.7480469,27.8276454 Z M29.3280402,9.09494702e-13 L23.7109375,35.8139735 M11.6186523,105.895516 L8.19628906,129.049325"
                          stroke="#000000" stroke-width="1.6" fill="none" stroke-miterlimit="10"></path>
                </g>
                <g transform="translate(1107.5754350387288 548.0903566256984)">
                    <g transform="translate(37.13755141874208 13.111791811801588)">
                        <g clip-path="url(#i17)">
                            <polygon points="0,0 38.9042969,0 38.9042969,113.418945 0,113.418945 0,0" stroke="none"
                                     fill="#000000"></polygon>
                        </g>
                        <polygon
                                points="24.7929688,6.29199219 7.63085937,56.7978516 0,113.418945 16.7734375,106.59668 22.5410156,56.7978516 38.9042969,0 24.7929688,6.29199219 24.7929688,6.29199219"
                                stroke="#000000" stroke-width="1" fill="none" stroke-miterlimit="10"></polygon>
                    </g>
                    <g transform="translate(16.13682012393474 0.0)">
                        <g clip-path="url(#i18)">
                            <polygon points="0,0 59.9050282,0 59.9050282,18.9682371 0,18.9682371 0,0" stroke="none"
                                     fill="#FFFFFF"></polygon>
                        </g>
                        <path d="M45.7937,18.9682371 L59.9050282,12.0497801 C53.9076323,6.75843895 48.7198068,3.4757241 44.3415516,2.20163556 C37.7741688,0.290502749 27.6062,-0.796411313 19.7331532,0.702612124 C14.5894316,1.68197365 6.78638517,7.36746565 0.000731294807,12.0497801 C-0.0915926828,12.1134865 8.55782138,13.7835712 25.9489735,17.060034 L40.5720204,18.9682371 L45.7937,18.9682371 Z"
                              stroke="#000000" stroke-width="1" fill="none" stroke-miterlimit="10"></path>
                    </g>
                    <g transform="translate(0.0 4.96763448875663)">
                        <g clip-path="url(#i19)">
                            <polygon points="0,0 61.9305202,0 61.9305202,121.563103 0,121.563103 0,0" stroke="none"
                                     fill="#FFFFFF"></polygon>
                        </g>
                        <path d="M61.9305202,14.0006026 L44.7684108,64.9420089 L37.1375514,121.563103 C6.15317642,95.4615401 -5.44317775,63.8202641 2.34848892,26.6392745 C17.3484889,-7.39588174 38.2820827,-0.843147364 47.4246608,3.75255576 C53.5197129,6.81635784 58.3549993,10.2323735 61.9305202,14.0006026 Z"
                              stroke="#000000" stroke-width="1" fill="none" stroke-miterlimit="10"></path>
                    </g>
                </g>
                <g transform="translate(1150.8096661449708 623.55859375)">
                    <g transform="translate(32.10423111581622 22.3193359375)">
                        <g clip-path="url(#i20)">
                            <polygon
                                    points="-1.11022302e-16,0 33.5725267,0 33.5725267,38.8007812 -1.11022302e-16,38.8007812 -1.11022302e-16,0"
                                    stroke="none" fill="#000000"></polygon>
                        </g>
                        <path d="M33.5725267,0 C32.2307298,11.828776 29.2453783,20.1533203 24.616472,24.9736328 C17.6731126,32.2041016 4.09010482,38.8007812 0.703386072,38.8007812 C-1.55442643,38.8007812 1.62330795,27.851237 10.2365892,5.95214844 L20.0481126,4.23242188 L33.5725267,0 Z"
                              stroke="#000000" stroke-width="1" fill="none" stroke-miterlimit="10"></path>
                    </g>
                    <g transform="translate(0.0 3.7871093749999964)">
                        <g clip-path="url(#i21)">
                            <polygon points="0,0 52.5966797,0 52.5966797,59.9326172 0,59.9326172 0,0" stroke="none"
                                     fill="#87C058"></polygon>
                        </g>
                        <path d="M10.6767578,0 L0,53.9345703 C17.2428385,61.9319661 29.9941406,61.9319661 38.2539062,53.9345703 C46.5136719,45.9371745 51.2945964,34.4978841 52.5966797,19.6166992 L10.6767578,0 Z"
                              stroke="#000000" stroke-width="1" fill="none" stroke-miterlimit="10"></path>
                    </g>
                    <g transform="translate(10.6767578125 0.0)">
                        <g clip-path="url(#i22)">
                            <polygon points="0,0 55,0 55,26.5517578 0,26.5517578 0,0" stroke="none"
                                     fill="#87C058"></polygon>
                        </g>
                        <polygon
                                points="6.32324219,0 0,3.78710937 41.4755859,26.5517578 55,22.3193359 6.32324219,0 6.32324219,0"
                                stroke="#000000" stroke-width="1" fill="none" stroke-miterlimit="10"></polygon>
                    </g>
                </g>
                <g transform="translate(1179.8435840871498 570.306640625)">
                    <g clip-path="url(#i23)">
                        <polygon points="0,0 35.0920586,0 35.0920586,67.6689453 0,67.6689453 0,0" stroke="none"
                                 fill="#000000"></polygon>
                    </g>
                    <path d="M0,5.38134766 L11.8874688,0 C23.0648776,12.8863932 29.5432305,23.5429688 31.3225274,31.9697266 C31.3462578,32.0821138 31.3607883,32.2036617 31.3934396,32.3081483 C33.8591856,40.1987447 35.0920586,50.8741862 35.0920586,64.3344727 L22.4577813,67.6689453 C15.3031589,51.8894857 10.5679701,41.5868327 8.25221487,36.7609863 C5.93645966,31.93514 3.18572137,21.4752604 0,5.38134766 Z"
                          stroke="#000000" stroke-width="1" fill="none" stroke-miterlimit="10"></path>
                </g>
                <g transform="translate(1158.3858380199708 577.30078125)">
                    <g clip-path="url(#i24)">
                        <polygon points="0,0 42.9154921,0 42.9154921,59.5336914 0,59.5336914 0,0" stroke="none"
                                 fill="#AEC4CB"></polygon>
                    </g>
                    <path d="M21.4145508,0 L0,40.6992187 L42.9154921,59.5336914 C42.0720911,41.7299805 40.1630859,30.3432617 37.1884766,25.3735352 C34.4944661,19.3393555 29.2364909,10.8815104 21.4145508,0 Z"
                          stroke="#000000" stroke-width="1" fill="none" stroke-miterlimit="10"></path>
                </g>
            </g>
        </g>
    </g>
</svg>